<?xml version="1.0" encoding="UTF-8" standalone="no"?>
<!-- Created with Inkscape (http://www.inkscape.org/) -->

<svg
   width="1434.1554"
   height="450.28543"
   viewBox="0 0 379.45361 119.13802"
   version="1.1"
   id="svg1"
   xmlns="http://www.w3.org/2000/svg"
   xmlns:svg="http://www.w3.org/2000/svg">
  <defs
     id="defs1" />
  <g
     id="layer1"
     transform="translate(-1.202586,-119.20443)">
    <g
       id="g1"
       transform="translate(-94.311995,60.303577)">
      <g
         id="g4"
         transform="translate(25.912947,-1181.2766)"
         style="fill:#cdab83;fill-opacity:1">
        <path
           style="fill:#cdab83;fill-opacity:1;stroke-width:1;stroke-linecap:round"
           d="m 69.601634,1359.098 1.2338,-68.5218 0.793096,-5.0467 c 0.482025,-2.2247 2.301161,-15.225 2.783177,-17.4497 0.519104,-0.074 2.532627,0.088 3.051722,0.014 0.815735,5.3764 1.474128,10.91 2.289849,16.2863 0.03708,2.5955 0.07416,4.6403 0.111233,7.2358 1.557314,5.4506 3.035913,11.373 4.593195,16.8235 0.222475,4.0045 -0.105644,7.9302 0.116823,11.9346 -0.370787,13.2001 -0.225808,25.5242 -0.59659,38.7241"
           id="path2" />
      </g>
      <path
         style="fill:#e4d1b9;fill-opacity:1;stroke-width:1;stroke-linecap:round"
         d="m 100.97234,85.599319 1.99259,0.458982 2.69416,19.484029 2.72772,14.10454 -2.70466,-0.92149 -2.62711,0.64953 -1.84816,3.03365 -2.644036,-2.71684 -2.072313,-0.46695 0.181567,-9.02537 -0.0037,-1.11411 0.417365,-2.20944 2.817426,-16.879217 z"
         id="path3-5" />
      <path
         style="fill:#c83737;fill-opacity:1;stroke-width:1;stroke-linecap:round"
         d="m 101.2693,85.141989 1.99259,0.276467 2.63218,13.04249 -0.18526,7.375684 -1.96092,0.37825 -1.26359,1.66051 -1.16639,0.63266 -1.652386,-1.89777 -2.196275,-0.99056 0.409277,-4.97428 2.321594,-12.8548 z"
         id="path3" />
      <path
         style="fill:#cdab83;fill-opacity:1;stroke-width:1;stroke-linecap:round"
         d="m 110.75219,159.99721 0.94386,-44.0467 8.02277,-35.079899 h 2.35964 l 6.92162,35.866499 -0.63316,61.06574 -17.76973,0.0186 z"
         id="path4" />
      <path
         style="fill:#43321c;fill-opacity:1;stroke-width:1;stroke-linecap:round"
         d="m 121.21058,80.511113 -2.35518,0.37187 -5.20618,27.270447 4.21453,2.851 3.96661,-2.35517 2.35517,-2.10726 2.60309,4.58639 0.24791,-5.57805 -4.21452,-21.196574 -0.99165,-3.222871 z"
         id="path1" />
      <path
         style="fill:#e4d1b9;fill-opacity:1;stroke-width:1;stroke-linecap:round"
         d="m 111.60394,117.01633 4.46244,2.47913 5.702,-1.92133 4.52442,5.20618 1.48748,-4.83431 1.30154,-0.37187 -2.10726,-11.34202 -0.37187,4.2765 -2.60309,-4.33848 -3.78068,3.03693 -2.41715,1.48748 -4.46244,-3.03693 -1.48748,6.44574 z"
         id="path5" />
      <path
         style="fill:#cdab83;fill-opacity:1;stroke-width:1;stroke-linecap:round"
         d="m 128.81897,177.81046 4.17769,0.0141 14.52413,-0.0641 0.1753,-56.58131 -4.40466,-19.1918 -1.88771,-17.618607 -3.14619,-0.9439 -4.40466,27.686507 -3.77542,8.8093 -1.25848,20.7648 z"
         id="path4-1" />
      <path
         style="fill:#cdab83;fill-opacity:1;stroke-width:1;stroke-linecap:round"
         d="m 159.0433,62.04705 3.14619,16.0456 3.46081,23.2817 3.4608,9.7532 -2.74392,66.69387 -18.21566,0.003 0.19475,-63.86541 6.60699,-28.9449 z"
         id="path5-0" />
      <path
         style="fill:#cdab83;fill-opacity:1;stroke-width:1;stroke-linecap:round"
         d="m 179.42681,58.90085 5.34851,32.0911 1.88772,24.8549 0.31461,31.1472 -0.82644,30.82737 h -19.35298 l 2.56078,-81.48097 z"
         id="path6" />
      <path
         style="fill:#cdab83;fill-opacity:1;stroke-width:1;stroke-linecap:round"
         d="m 194.83366,109.61172 3.77543,4.4047 5.03389,30.8326 1.88772,11.9555 -0.30517,21.0169 h -18.57195 l 1.88771,-39.2648 z"
         id="path7" />
      <path
         style="fill:#cdab83;fill-opacity:1;stroke-width:1;stroke-linecap:round"
         d="m 213.091,71.48565 2.83157,0.9438 6.29237,36.1812 -0.48033,69.21077 h -15.84073 l -1.6122,-63.54767 z"
         id="path8" />
      <path
         style="fill:#cdab83;fill-opacity:1;stroke-width:1;stroke-linecap:round"
         d="m 232.59736,70.85635 7.55084,42.1589 -0.75319,64.80617 h -17.30876 l 3.58949,-70.46927 z"
         id="path9" />
      <path
         style="fill:#cdab83;fill-opacity:1;stroke-width:1;stroke-linecap:round"
         d="m 248.64291,75.26105 9.43856,45.6197 -2.19288,56.94067 h -15.27213 l 0.79022,-62.91847 z"
         id="path10" />
      <path
         style="fill:#cdab83;fill-opacity:1;stroke-width:1;stroke-linecap:round"
         d="m 265.94693,88.47505 5.0339,6.2923 4.09004,39.3274 -1.17627,43.72667 h -17.41722 l 0.66023,-52.85067 z"
         id="path11" />
      <path
         style="fill:#cdab83;fill-opacity:1;stroke-width:1;stroke-linecap:round"
         d="m 284.19481,110.18375 6.29238,26.1133 2.17606,41.52437 -17.59238,0.21745 1.5731,-32.61792 z"
         id="path12" />
      <path
         style="fill:#cdab83;fill-opacity:1;stroke-width:1;stroke-linecap:round"
         d="m 300.8696,106.40825 3.77542,0.9439 c 3.59334,23.34708 4.42251,46.8916 4.78297,70.4696 l -2.47742,-3.3e-4 h -13.72479 l -0.85088,-34.91737 z"
         id="path13" />
      <path
         style="fill:#cdab83;fill-opacity:1;stroke-width:1;stroke-linecap:round"
         d="m 320.37596,92.87965 11.64089,41.5297 -0.31461,43.4174 -21.96436,-0.005 1.82875,-44.67057 z"
         id="path14" />
      <path
         style="fill:#cdab83;fill-opacity:1;stroke-width:1;stroke-linecap:round"
         d="m 338.62384,95.08205 10.69703,53.4851 -0.23242,29.25427 h -16.89511 l 1.39659,-53.16527 z"
         id="path15" />
      <path
         style="fill:#cdab83;fill-opacity:1;stroke-width:1;stroke-linecap:round"
         d="m 445.39405,94.999369 10.69703,53.485091 -0.23242,29.25427 h -16.89511 l 1.39659,-53.16526 z"
         id="path15-1" />
      <path
         style="fill:#cdab83;fill-opacity:1;stroke-width:1;stroke-linecap:round"
         d="m 357.87283,130.00936 8.75208,20.18317 v 27.62889 h -16.04504 l 0.3997,-22.49967 z"
         id="path16" />
      <path
         style="fill:#cdab83;fill-opacity:1;stroke-width:1;stroke-linecap:round"
         d="m 374.17574,126.54385 2.51696,-0.9438 2.20231,13.5286 4.09006,22.9671 -0.4244,15.72567 h -14.73928 l 2.26432,-23.59107 3.4608,-15.731 z"
         id="path17" />
      <path
         style="fill:#cdab83;fill-opacity:1;stroke-width:1;stroke-linecap:round"
         d="m 393.6821,83.75575 6.60699,27.0572 v 25.7987 l 1.5731,23.2818 0.44331,17.92797 h -18.23845 l 2.06421,-45.92907 2.83157,-25.7987 z"
         id="path18" />
      <path
         style="fill:#cdab83;fill-opacity:1;stroke-width:1;stroke-linecap:round"
         d="m 411.30075,135.66785 6.29238,22.9671 0.24266,11.07311 0.53415,8.11336 h -14.51498 l 0.8388,-16.66947 5.03389,-22.6526 z"
         id="path19" />
      <path
         style="fill:#cdab83;fill-opacity:1;stroke-width:1;stroke-linecap:round"
         d="m 428.60477,114.90295 7.63174,35.82816 0.81517,13.53709 0.54835,13.55322 h -17.86657 l 1.32047,-26.42267 z"
         id="path20" />
      <path
         style="fill:#cdab83;fill-opacity:1;stroke-width:1;stroke-linecap:round"
         d="m 464.27116,109.52903 3.77543,4.4047 5.03389,30.8326 1.88772,11.9555 -0.30517,21.0169 h -18.57195 l 1.88771,-39.2648 z"
         id="path7-6" />
      <path
         style="fill:#cd83ca;fill-opacity:1;stroke-width:1;stroke-linecap:round"
         d="m 138.06867,82.990243 3.7187,1.735395 2.23122,20.824702 0.61978,1.98331 -10.16444,-2.35518 2.10726,-10.164436 z"
         id="path21" />
      <path
         style="fill:#e4d1b9;fill-opacity:1;stroke-width:1;stroke-linecap:round"
         d="m 131.1271,117.69809 3.84266,1.23957 3.34682,1.73539 3.22288,-2.72705 2.23122,4.21453 0.37187,-5.08222 2.72704,0.74374 -2.47913,-11.31104 -9.54466,-2.44814 -1.11561,4.58639 -1.98331,6.32178 z"
         id="path22" />
      <path
         style="fill:#d45500;fill-opacity:1;stroke-width:1;stroke-linecap:round"
         d="m 158.9981,62.757792 -5.60963,29.625885 4.38252,7.187345 0.70121,-5.609635 4.90843,1.75301 1.09563,-3.8128 -4.57223,-28.813655 z"
         id="path23" />
      <path
         style="fill:#e4d1b9;fill-opacity:1;stroke-width:1;stroke-linecap:round"
         d="m 150.2761,105.57509 4.60165,0.56973 2.80482,-2.98012 3.4622,3.11159 3.02395,-2.41039 2.62951,0.7012 -2.71717,-14.199386 -5.52198,1.402408 -0.87651,5.259033 -3.76897,-8.063851 z"
         id="path24" />
      <path
         style="fill:#c3b9e4;fill-opacity:1;stroke-width:1;stroke-linecap:round"
         d="m 173.02219,82.917417 4.03192,2.454217 2.27891,-1.928313 4.20723,0.525902 -0.1753,-1.75301 -3.68132,-22.964444 z"
         id="path25" />
      <path
         style="fill:#e4d1b9;fill-opacity:1;stroke-width:1;stroke-linecap:round"
         d="m 171.53695,88.382356 1.92133,2.665066 2.35518,-2.293196 2.35517,4.152545 4.02859,-2.665066 2.40588,0.06198 -1.00165,-6.547787 -4.50314,-0.45576 -1.98331,2.169239 -4.02859,-2.851002 z"
         id="path26" />
      <path
         style="fill:#b9dbe4;fill-opacity:1;stroke-width:1;stroke-linecap:round"
         d="m 194.90915,108.97348 4.02221,5.22455 1.6131,11.66816 -2.62952,1.31475 -2.89246,0.87651 -2.89247,-1.57771 -0.52591,-0.7012 -0.0876,-1.92832 z"
         id="path27" />
      <path
         style="fill:#e4d1b9;fill-opacity:1;stroke:none;stroke-width:7;stroke-linecap:round;stroke-dasharray:28.0001, 28.0001;stroke-dashoffset:0;stroke-opacity:1"
         d="m 188.84311,137.17311 c 0,0 2.49804,-12.62168 2.62952,-12.44638 0.13147,0.1753 1.88448,2.36656 1.88448,2.36656 l 3.6375,-0.65738 3.24307,-0.7012 0.43826,0.74503 1.92831,12.22725 -4.29488,1.22711 -1.66536,-4.11958 -3.33072,4.42636 -1.31476,-3.68133 c 0,0 -2.05979,4.77696 -2.10361,4.25105 -0.0438,-0.5259 -1.05181,-3.63749 -1.05181,-3.63749 z"
         id="path29" />
      <path
         style="fill:#dfdb1c;fill-opacity:1;stroke:none;stroke-width:7;stroke-linecap:round;stroke-dasharray:28.0001, 28.0001;stroke-dashoffset:0;stroke-opacity:1"
         d="m 212.73308,71.008989 3.26798,1.159436 3.63105,22.101868 -7.18948,0.123958 -2.97496,-1.48748 -0.37187,-4.090567 z"
         id="path30" />
      <path
         style="fill:#e4d1b9;fill-opacity:1;stroke:none;stroke-width:7;stroke-linecap:round;stroke-dasharray:28.0001, 28.0001;stroke-dashoffset:0;stroke-opacity:1"
         d="m 209.13421,89.403558 -1.91327,10.425099 2.96508,3.336033 3.06777,-2.71716 3.06777,4.47018 2.54186,-4.73314 1.92832,4.64548 0.26295,-3.59367 -1.52546,-8.363108 -4.61008,-3.294412 z"
         id="path31" />
      <path
         style="fill:#d68e35;fill-opacity:1;stroke:none;stroke-width:7;stroke-linecap:round;stroke-dasharray:28.0001, 28.0001;stroke-dashoffset:0;stroke-opacity:1"
         d="m 233.37884,70.943897 3.97906,24.565964 -2.47913,1.611434 -6.69366,-2.727044 3.96662,-23.799665 z"
         id="path32" />
      <path
         style="fill:#e4d1b9;fill-opacity:1;stroke:none;stroke-width:7;stroke-linecap:round;stroke-dasharray:28.0001, 28.0001;stroke-dashoffset:0;stroke-opacity:1"
         d="m 227.99478,94.314118 -1.68749,9.715882 4.35696,-1.95044 1.73539,5.08222 1.9833,-5.20618 c 0,0 2.85101,6.94157 3.09892,6.44574 0.24791,-0.49582 0.74374,-5.82595 0.74374,-5.82595 0,0 -0.60475,-3.762526 -0.60475,-4.258352 0,-0.495827 -0.44448,-4.901981 -0.44448,-4.901981 0,0 -0.81012,1.846889 -2.42156,2.094804 -1.61143,0.247912 -6.76003,-1.195743 -6.76003,-1.195743 z"
         id="path33" />
      <path
         style="fill:#5861bd;fill-opacity:1;stroke:none;stroke-width:7;stroke-linecap:round;stroke-dasharray:28.0001, 28.0001;stroke-dashoffset:0;stroke-opacity:1"
         d="m 248.57696,75.467121 2.27891,1.227108 4.55783,30.765341 -4.99608,0.70121 -6.57379,-2.89247 -0.5259,-1.05181 z"
         id="path34" />
      <path
         style="fill:#e4d1b9;fill-opacity:1;stroke:none;stroke-width:7;stroke-linecap:round;stroke-dasharray:28.0001, 28.0001;stroke-dashoffset:0;stroke-opacity:1"
         d="m 243.30782,104.43474 -1.61144,9.04883 3.09892,3.34682 2.23122,-3.22287 4.46244,3.47079 3.9666,2.35517 -0.37186,-4.58639 2.35517,2.97496 -2.04528,-10.35038 -6.50772,0.062 -3.47079,-1.98331 z"
         id="path35" />
      <path
         style="fill:#65a550;fill-opacity:1;stroke:none;stroke-width:7;stroke-linecap:round;stroke-dasharray:28.0001, 28.0001;stroke-dashoffset:0;stroke-opacity:1"
         d="m 265.75647,88.439403 5.47815,6.661441 1.40241,15.382676 -3.85662,-2.84865 -3.9881,1.31476 -1.66536,-1.70919 -1.88449,-0.74503 z"
         id="path36" />
      <path
         style="fill:#e4d1b9;fill-opacity:1;stroke:none;stroke-width:7;stroke-linecap:round;stroke-dasharray:28.0001, 28.0001;stroke-dashoffset:0;stroke-opacity:1"
         d="m 259.62093,114.77839 3.72514,-0.83268 2.5857,4.42635 3.11159,-3.63749 3.24307,3.81279 0.92033,-2.32273 -0.61355,-5.91642 -4.82078,-3.90044 -3.68132,0.56972 -2.761,-0.74503 z"
         id="path37" />
      <path
         style="fill:#a56e50;fill-opacity:1;stroke:none;stroke-width:7;stroke-linecap:round;stroke-dasharray:28.0001, 28.0001;stroke-dashoffset:0;stroke-opacity:1"
         d="m 283.11127,109.38788 1.92832,2.10362 5.08373,21.56203 -5.25904,2.10361 -4.55782,-1.0518 c 0,0 -0.87651,-3.15542 -0.87651,-4.38253 0,-1.22711 3.68132,-20.33493 3.68132,-20.33493 z"
         id="path38" />
      <path
         style="fill:#e4d1b9;fill-opacity:1;stroke:none;stroke-width:7;stroke-linecap:round;stroke-dasharray:28.0001, 28.0001;stroke-dashoffset:0;stroke-opacity:1"
         d="m 277.51984,140.69204 5.02024,6.25981 1.30155,-4.89629 4.55305,3.08402 2.40979,-4.75614 -0.0811,-4.53745 -0.83662,-4.21911 -5.11542,2.80535 -3.09891,-2.78902 -2.72705,-2.23122 z"
         id="path39" />
      <path
         style="fill:#ce4b4e;fill-opacity:1;stroke:none;stroke-width:7;stroke-linecap:round;stroke-dasharray:28.0001, 28.0001;stroke-dashoffset:0;stroke-opacity:1"
         d="m 300.57577,106.23211 3.96661,1.17758 1.55301,8.63726 0.73707,7.83082 -3.0958,2.99311 c 0,0 -2.54111,-1.92133 -2.91298,-1.92133 -0.37187,0 -4.26147,-0.63793 -4.26147,-0.63793 z"
         id="path40" />
      <path
         style="fill:#e4d1b9;fill-opacity:1;stroke:none;stroke-width:7;stroke-linecap:round;stroke-dasharray:28.0001, 28.0001;stroke-dashoffset:0;stroke-opacity:1"
         d="m 296.78476,124.06935 -1.79684,6.83674 1.84066,1.05181 3.41838,-2.54187 2.19126,3.6375 1.66536,-3.54985 2.36657,3.1116 0.74503,-1.18328 0.1753,-0.13148 -0.70121,-7.9762 c 0,0 -4.3387,2.49804 -4.1634,2.45422 0.1753,-0.0438 -1.84066,-2.01597 -1.84066,-2.01597 l -3.37455,0.13148 z"
         id="path41" />
      <path
         style="fill:#e4d1b9;fill-opacity:1;stroke:none;stroke-width:7;stroke-linecap:round;stroke-dasharray:28.0001, 28.0001;stroke-dashoffset:0;stroke-opacity:1"
         d="m 314.61385,118.78271 -1.89034,9.04883 3.9976,-2.04528 4.33848,3.34683 1.7044,-1.89034 4.61739,-0.15495 0.80572,-1.7044 1.79737,1.51847 -2.66507,-8.61499 -8.98685,-0.031 z"
         id="path43" />
      <path
         style="fill:#e69730;fill-opacity:1;stroke:none;stroke-width:7;stroke-linecap:round;stroke-dasharray:28.0001, 28.0001;stroke-dashoffset:0;stroke-opacity:1"
         d="m 319.47915,93.092707 2.60308,0.371869 5.88794,25.473084 -4.46243,2.23121 -4.5864,-1.73539 c 0,0 -1.61143,2.04529 -2.04528,2.04529 -0.43385,0 -2.23122,-0.37187 -2.23122,-0.37187 l 0.23241,-3.28486 z"
         id="path42" />
      <path
         style="fill:#e4d1b9;fill-opacity:1;stroke:none;stroke-width:7;stroke-linecap:round;stroke-dasharray:28.0001, 28.0001;stroke-dashoffset:0;stroke-opacity:1"
         d="m 333.77329,126.12914 h 2.98012 c 0,0 3.33072,2.89246 3.41837,2.45421 0.0876,-0.43825 1.13946,-3.06777 1.13946,-3.06777 l 2.45421,1.84067 1.75301,0.3506 -2.89246,-11.48223 -2.27892,0.61356 -4.11957,-0.3506 -1.84067,-0.0876 z"
         id="path45" />
      <path
         style="fill:#e0b9e4;fill-opacity:1;stroke:none;stroke-width:7;stroke-linecap:round;stroke-dasharray:28.0001, 28.0001;stroke-dashoffset:0;stroke-opacity:1"
         d="m 338.76937,95.451446 1.31476,0.788855 2.89247,20.948479 -2.45422,1.31476 -2.27891,-1.49006 -1.13946,1.66536 -2.10361,-0.26295 -0.5259,-1.49006 z"
         id="path44" />
      <path
         style="fill:#e4d1b9;fill-opacity:1;stroke:none;stroke-width:7;stroke-linecap:round;stroke-dasharray:28.0001, 28.0001;stroke-dashoffset:0;stroke-opacity:1"
         d="m 352.38962,148.56328 -1.61143,7.18949 4.95826,4.33847 1.11561,-1.9833 5.20617,0.49583 2.60311,-0.37187 1.73537,-3.47079 0.12396,-4.71035 -4.09056,-0.49582 -7.31344,-1.7354 z"
         id="path47" />
      <path
         style="fill:#d45500;fill-opacity:1;stroke:none;stroke-width:7;stroke-linecap:round;stroke-dasharray:28.0001, 28.0001;stroke-dashoffset:0;stroke-opacity:1"
         d="m 357.70189,130.16106 6.66145,14.63764 2.71716,5.52199 -5.43433,2.89247 -2.98012,-2.89247 -5.96024,1.75301 c 0,0 -0.61355,-2.62952 -0.43826,-3.24307 0.17531,-0.61356 5.43434,-18.66957 5.43434,-18.66957 z"
         id="path46" />
      <path
         style="fill:#e4d1b9;fill-opacity:1;stroke-width:7;stroke-linecap:round;stroke-dasharray:28.0001, 28.0001"
         d="m 372.55867,144.2728 -2.19128,8.06385 -0.26294,2.27892 2.71717,-1.92831 2.45422,2.27891 1.22708,-2.19126 3.28692,3.11159 0.26294,-3.50602 1.66537,1.97214 -2.41041,-10.64955 -2.01596,2.761 -2.1036,-1.09563 c 0,0 -1.22711,1.5777 -1.40242,1.09563 -0.17529,-0.48208 -1.22709,-2.19127 -1.22709,-2.19127 z"
         id="path49" />
      <path
         style="fill:#c3b9e4;fill-opacity:1;stroke:none;stroke-width:7;stroke-linecap:round;stroke-dasharray:28.0001, 28.0001;stroke-dashoffset:0;stroke-opacity:1"
         d="m 377.24796,124.98968 1.22711,7.88855 1.753,14.54999 -2.27891,4.03193 -4.38253,-4.55783 -1.4024,-1.92831 1.57771,-9.81686 0.26295,-9.90451 z"
         id="path48" />
      <path
         style="fill:#d3d340;fill-opacity:1;stroke-width:7;stroke-linecap:round;stroke-dasharray:28.0001, 28.0001"
         d="m 392.84975,83.618623 2.01597,0.701205 4.82079,23.577992 -2.89248,-0.5259 -2.80482,2.19127 -1.49006,-4.55783 -1.66536,2.36656 -2.01594,-0.5259 0.17528,-3.59367 z"
         id="path28" />
      <path
         style="fill:#e4d1b9;fill-opacity:1;stroke-width:7;stroke-linecap:round;stroke-dasharray:28.0001, 28.0001"
         d="m 388.73019,105.44223 -0.78885,9.64661 3.15542,-2.29681 2.54185,4.00302 1.49008,-3.47803 2.1036,3.4124 0.61356,-3.14991 2.71717,3.60927 -0.43826,-8.7935 -1.49005,-2.69056 -4.90844,0.98435 -0.96415,-1.24684 -0.52591,-0.78747 -1.84065,1.04996 z"
         id="path50" />
      <path
         style="fill:#8b3720;fill-opacity:1;stroke-width:7;stroke-linecap:round;stroke-dasharray:28.0001, 28.0001"
         d="m 411.51934,135.7707 c -0.3506,0.0876 -2.19128,2.80482 -2.19128,2.80482 l -1.87118,10.75534 2.30943,-1.20143 2.62954,1.4024 2.28331,-1.10314 z"
         id="path51" />
      <path
         style="fill:#e4d1b9;fill-opacity:1;stroke-width:7;stroke-linecap:round;stroke-dasharray:28.0001, 28.0001"
         d="m 407.67428,148.06746 c 0,0 -2.72706,10.22642 -2.47915,10.22642 0.24792,0 3.84265,-3.22287 3.84265,-3.22287 l 2.16924,3.09891 1.79737,-3.59474 c 0,0 3.84267,4.52441 3.84267,4.2765 0,-0.24791 -0.24791,-5.26815 -0.55782,-5.82596 -0.30988,-0.5578 -1.89032,-5.94992 -1.89032,-5.94992 l -2.07628,0.61979 z"
         id="path52" />
      <path
         style="fill:#52a616;fill-opacity:1;stroke-width:7;stroke-linecap:round;stroke-dasharray:28.0001, 28.0001"
         d="m 428.62293,115.095 2.6031,11.65192 -3.59476,1.48748 -2.23121,-3.47078 z"
         id="path53" />
      <path
         style="fill:#e4d1b9;fill-opacity:1;stroke-width:7;stroke-linecap:round;stroke-dasharray:28.0001, 28.0001"
         d="m 425.33807,124.57768 -1.23954,11.52797 2.54108,-3.03694 4.15256,2.97496 0.12395,-5.02024 2.10728,4.33848 -1.67344,-8.80092 -1.67341,-1.61144 -1.73537,1.17759 -1.30157,-1.36352 z"
         id="path54" />
      <path
         style="fill:#c01e4f;fill-opacity:1;stroke-width:7;stroke-linecap:round;stroke-dasharray:28.0001, 28.0001"
         d="m 445.54301,95.323928 2.04528,9.916532 -4.15256,0.5578 z"
         id="path55" />
      <path
         style="fill:#e4d1b9;fill-opacity:1;stroke-width:7;stroke-linecap:round;stroke-dasharray:28.0001, 28.0001"
         d="m 442.81057,111.36002 0.61355,-5.96024 4.11959,-0.56972 1.05179,6.88056 -1.88447,-1.66536 -1.05182,3.1116 -1.00798,-3.4622 c 0,0 -1.0518,4.3387 -1.18327,3.8128 -0.13147,-0.5259 -0.56973,-2.45421 -0.56973,-2.45421 z"
         id="path56" />
      <path
         style="fill:#000000;fill-opacity:1;stroke-width:7;stroke-linecap:round;stroke-dasharray:28.0001, 28.0001"
         d="m 464.02201,109.21258 4.55782,4.90843 0.70122,7.6256 -8.06386,-0.8765 z"
         id="path57" />
      <path
         style="fill:#e4d1b9;fill-opacity:1;stroke-width:7;stroke-linecap:round;stroke-dasharray:28.0001, 28.0001"
         d="m 459.79973,130.33287 3.95933,-2.97662 1.66535,4.03192 1.84068,-3.15542 3.80619,4.00626 -0.55254,-2.59853 -0.37193,-4.29333 -0.8702,-3.90952 -2.27453,-1.00578 -4.55782,0.26295 -1.17576,-0.031 -0.10802,1.33253 z"
         id="path58" />
    </g>
  </g>
</svg>
