<?xml version="1.0" encoding="UTF-8" standalone="no"?>
<!-- Created with Inkscape (http://www.inkscape.org/) -->

<svg
   width="632.69763mm"
   height="475.45908mm"
   viewBox="0 0 632.69764 475.45907"
   version="1.1"
   id="svg377"
   xmlns="http://www.w3.org/2000/svg"
   xmlns:svg="http://www.w3.org/2000/svg">
  <defs
     id="defs374" />
  <g
     id="layer1"
     transform="translate(123.08163,107.0327)">
    <g
       id="g18207">
      <ellipse
         style="fill:#819ac5;fill-opacity:1;stroke:none;stroke-width:1;stroke-linecap:round;stroke-dasharray:none;stroke-dashoffset:27.2126;stroke-opacity:1"
         id="path17375"
         cx="99.410225"
         cy="139.12468"
         rx="222.49185"
         ry="172.49081" />
      <path
         style="fill:none;stroke:none;stroke-width:1;stroke-linecap:butt;stroke-linejoin:miter;stroke-dasharray:none;stroke-opacity:1"
         d="m 26.226436,64.236437 c 10.073363,20.14195 20.145904,40.282263 23.570046,63.652613 3.424142,23.37036 0.200998,49.97021 -7.051167,67.82989 -7.252164,17.85969 -18.533166,26.97961 -29.814622,36.09991"
         id="path30929"
         transform="translate(2.7236078,-1.1505145)" />
      <path
         style="fill:#d9562e;fill-opacity:1;stroke:none;stroke-width:0.999999;stroke-linecap:butt;stroke-linejoin:miter;stroke-dasharray:none;stroke-opacity:1"
         d="m 49.039633,-13.04785 c -13.60938,-19.075868 9.395737,-51.032096 40.016141,-70.760445 30.620406,-19.728345 68.853486,-27.228135 86.835836,-18.423015 17.98235,8.805112 15.71429,33.913066 10.20586,56.738914 -5.50842,22.825849 -14.25667,43.368751 -43.74184,50.542319 -29.48517,7.173568 -79.706617,0.9780962 -93.315997,-18.097773 z"
         id="path30891"
         transform="translate(2.7236078,-1.1505145)" />
      <path
         style="fill:#c83c3c;fill-opacity:1;stroke:none;stroke-width:1;stroke-linecap:butt;stroke-linejoin:miter;stroke-dasharray:none;stroke-opacity:1"
         d="m -33.683794,278.0233 c -4.947576,13.50724 8.244602,43.72486 21.908669,62.03813 13.664068,18.31327 27.798293,24.72294 34.157891,21.51835 6.359598,-3.20459 4.946176,-16.02396 2.826002,-32.7354 C 23.088594,312.13293 20.261747,291.53038 7.3057047,279.62563 -5.6503371,267.72089 -28.736218,264.51606 -33.683794,278.0233 Z"
         id="path30899"
         transform="translate(2.7236078,-1.1505145)" />
      <path
         style="fill:#c83c3c;fill-opacity:1;stroke:none;stroke-width:1;stroke-linecap:butt;stroke-linejoin:miter;stroke-dasharray:none;stroke-opacity:1"
         d="m 173.89969,277.98278 c -5.37497,14.66774 8.95682,47.48155 23.80127,67.36823 14.84445,19.88667 30.19967,26.84704 37.10865,23.36713 6.90898,-3.47991 5.37346,-17.40068 3.07013,-35.54792 -2.30333,-18.14724 -5.37438,-40.51988 -19.44964,-53.44743 -14.07525,-12.92756 -39.15543,-16.40774 -44.53041,-1.74001 z"
         id="path30899-7"
         transform="translate(2.7236078,-1.1505145)" />
      <circle
         style="fill:#e6e6e6;fill-opacity:1;stroke:none;stroke-width:0.999999;stroke-linecap:round;stroke-dasharray:none;stroke-dashoffset:27.2126"
         id="path30895"
         cx="-31.485922"
         cy="115.18163"
         r="53.948727" />
      <ellipse
         style="fill:#2e1b1b;fill-opacity:1;stroke:none;stroke-width:0.999999;stroke-linecap:round;stroke-dasharray:none;stroke-dashoffset:27.2126"
         id="path30897"
         cx="-54.883343"
         cy="134.85176"
         rx="13.222727"
         ry="15.338363" />
      <path
         style="fill:#ba8c3f;fill-opacity:1;stroke:none;stroke-width:1;stroke-linecap:butt;stroke-linejoin:miter;stroke-dasharray:none;stroke-opacity:1"
         d="m 64.706651,41.266229 c 0.722263,12.815796 14.214692,41.191956 10.840756,81.010051 -3.373936,39.81809 -23.612148,91.07722 -26.021066,110.52801 -2.408919,19.45079 13.01071,7.09367 26.743936,-8.69618 13.733226,-15.78986 25.779783,-35.01205 33.489813,-60.18426 7.71003,-25.1722 11.08307,-56.29383 6.74693,-78.948943 C 112.17089,62.319795 100.12433,48.131993 88.077645,39.664221 76.030961,31.19645 63.984388,28.450433 64.706651,41.266229 Z"
         id="path30937"
         transform="translate(2.7236078,-1.1505145)" />
      <path
         style="fill:#42341d;fill-opacity:1;stroke:none;stroke-width:1.68847;stroke-linecap:butt;stroke-linejoin:miter;stroke-dasharray:none;stroke-opacity:1"
         d="m 64.706651,41.266229 c 0.722263,12.815796 14.214692,41.191956 10.840756,81.010051 -3.373936,39.81809 -23.612148,91.07722 -26.021066,110.52801 -2.408919,19.45079 13.01071,7.09367 26.743936,-8.69618 13.733226,-15.78986 25.779783,-35.01205 33.489813,-60.18426 7.71003,-25.1722 11.08307,-56.29383 6.74693,-78.948943 C 112.17089,62.319795 100.12433,48.131993 88.077645,39.664221 76.030961,31.19645 63.984388,28.450433 64.706651,41.266229 Z"
         id="path30937-2"
         transform="matrix(0.10350335,0.58313896,-0.58313896,0.10350335,34.435508,153.79102)" />
      <path
         style="fill:#c54040;fill-opacity:1;stroke:none;stroke-width:0.999998;stroke-linecap:butt;stroke-linejoin:miter;stroke-dasharray:none;stroke-opacity:1"
         d="m 144.58091,63.366558 c 0.56723,10.091339 11.1635,32.435138 8.51378,63.788472 -2.64972,31.35333 -18.54379,71.71551 -20.43564,87.03134 -1.89185,15.31583 10.21796,5.58565 21.00335,-6.8475 10.78539,-12.43316 20.24615,-27.56899 26.30122,-47.38994 6.05507,-19.82096 8.70408,-44.32658 5.2987,-62.165535 -3.40538,-17.838957 -12.86615,-29.010638 -22.32701,-35.67828 -9.46086,-6.667643 -18.92163,-8.829896 -18.3544,1.261443 z"
         id="path30937-1"
         transform="translate(2.7236078,-1.1505145)" />
      <path
         style="fill:#5547ff;fill-opacity:1;stroke:none;stroke-width:1;stroke-linecap:butt;stroke-linejoin:miter;stroke-dasharray:none;stroke-opacity:1"
         d="m 228.74215,92.995347 c 0.46201,8.242283 9.0927,26.491993 6.9345,52.100403 -2.15821,25.60841 -15.10397,58.57495 -16.64489,71.08444 -1.54091,12.50948 8.32256,4.56218 17.10728,-5.59283 8.78473,-10.155 16.49055,-22.51747 21.42242,-38.7066 4.93188,-16.18913 7.0895,-36.20454 4.31581,-50.77483 -2.77369,-14.5703 -10.47951,-23.694968 -18.1854,-29.140887 -7.7059,-5.445919 -15.41173,-7.211981 -14.94972,1.030304 z"
         id="path30937-5"
         transform="translate(2.7236078,-1.1505145)" />
      <path
         style="fill:#d03f40;fill-opacity:1;stroke:none;stroke-width:1;stroke-linecap:butt;stroke-linejoin:miter;stroke-dasharray:none;stroke-opacity:1"
         d="m 316.12268,129.48323 c 19.84019,-21.69248 59.93754,-40.738808 99.82696,-47.087231 39.88942,-6.348424 79.56838,2.27e-4 88.75621,22.750471 9.18782,22.75024 -12.11348,61.90022 -35.29489,93.99684 -23.1814,32.09662 -48.24179,57.13852 -71.84017,65.95655 -23.59839,8.81803 -45.73505,1.41126 -62.23399,-12.16777 -16.49894,-13.57902 -27.35843,-33.3304 -32.99754,-55.37516 -5.63911,-22.04477 -6.05678,-46.38123 13.78342,-68.0737 z"
         id="path30887"
         transform="translate(2.7236078,-1.1505145)" />
      <path
         style="fill:none;stroke:none;stroke-width:0.999998;stroke-linecap:butt;stroke-linejoin:miter;stroke-dasharray:none;stroke-opacity:1"
         d="m -115.60387,203.47882 c 24.250428,10.99361 48.498592,21.9862 70.193652,22.41934 21.695061,0.43315 40.8379495,-9.6914 59.980654,-19.81585"
         id="path30933"
         transform="translate(2.7236078,-1.1505145)" />
    </g>
  </g>
</svg>
