<?xml version="1.0" encoding="UTF-8" standalone="no"?>
<!-- Created with Inkscape (http://www.inkscape.org/) -->

<svg
   width="138.98813mm"
   height="90.611984mm"
   viewBox="0 0 138.98813 90.611984"
   version="1.1"
   id="svg1"
   xmlns="http://www.w3.org/2000/svg"
   xmlns:svg="http://www.w3.org/2000/svg">
  <defs
     id="defs1" />
  <g
     id="layer1"
     transform="translate(-32.243689,-73.755502)">
    <g
       id="g105780"
       transform="translate(-104.24671,-1364.5608)">
      <g
         id="g34341-92-5-5-3"
         transform="matrix(9.9362586,0,0,9.9362586,88.040364,1383.4661)"
         style="opacity:1;fill:#1d79af;fill-opacity:1">
        <path
           id="path16198-8-5-2-8-3"
           style="fill:#1d79af;fill-opacity:1;stroke-width:0.783385;stroke-linecap:round;stroke-dashoffset:27.2126"
           d="m 11.818861,5.5202068 a 3.7586407,4.5596624 0 0 0 -3.3630973,2.530368 3.6970236,3.2965127 0 0 0 -3.5796794,3.2924552 3.6970236,3.2965127 0 0 0 3.6970794,3.296503 3.6970236,3.2965127 0 0 0 1.7332653,-0.387419 3.7586407,4.5596624 0 0 0 1.512432,0.387419 3.7586407,4.5596624 0 0 0 1.562024,-0.412316 3.6970236,3.2965127 0 0 0 1.786297,0.412316 3.6970236,3.2965127 0 0 0 3.696877,-3.296503 3.6970236,3.2965127 0 0 0 -3.681291,-3.2963012 3.7586407,4.5596624 0 0 0 -3.363907,-2.526522 z" />
        <path
           id="path16198-5-1-8-7-1-1"
           style="fill:#1d79af;fill-opacity:1;stroke:#ffffff;stroke-width:0.271411;stroke-linecap:round;stroke-dasharray:0.542825, 1.08565;stroke-dashoffset:0;stroke-opacity:1"
           d="m 11.828543,6.3822178 a 3.0480642,3.6976515 0 0 0 -2.7272983,2.051998 2.9980959,2.6733021 0 0 0 -2.9029374,2.6700122 2.9980959,2.6733021 0 0 0 2.9981414,2.673294 2.9980959,2.6733021 0 0 0 1.4055893,-0.314177 3.0480642,3.6976515 0 0 0 1.226505,0.314177 3.0480642,3.6976515 0 0 0 1.266721,-0.334367 2.9980959,2.6733021 0 0 0 1.448595,0.334367 2.9980959,2.6733021 0 0 0 2.997976,-2.673294 2.9980959,2.6733021 0 0 0 -2.985337,-2.6731302 3.0480642,3.6976515 0 0 0 -2.727955,-2.04888 z" />
      </g>
      <text
         xml:space="preserve"
         style="font-style:normal;font-variant:normal;font-weight:bold;font-stretch:normal;font-size:10.8607px;line-height:1;font-family:'last ninja';-inkscape-font-specification:'last ninja Bold';font-variant-ligatures:normal;font-variant-position:normal;font-variant-caps:normal;font-variant-numeric:normal;font-variant-alternates:normal;font-feature-settings:normal;text-indent:0;text-align:start;text-decoration:none;text-decoration-line:none;text-decoration-style:solid;text-decoration-color:#000000;letter-spacing:0px;word-spacing:0px;text-transform:none;writing-mode:lr-tb;direction:ltr;text-orientation:mixed;dominant-baseline:auto;baseline-shift:baseline;text-anchor:start;white-space:normal;shape-padding:0;vector-effect:none;fill:#f8f8f8;fill-opacity:1;stroke:none;stroke-width:0.271515;stroke-linecap:butt;stroke-linejoin:miter;stroke-miterlimit:4;stroke-dasharray:none;stroke-dashoffset:0;stroke-opacity:1"
         x="158.47537"
         y="1494.1089"
         id="text23762-5-1-0-4"><tspan
           id="tspan23760-3-5-4-7"
           style="font-style:normal;font-variant:normal;font-weight:bold;font-stretch:normal;font-family:'Hachi Maru Pop';-inkscape-font-specification:'Hachi Maru Pop Bold';fill:#f8f8f8;fill-opacity:1;stroke-width:0.271515"
           x="158.47537"
           y="1494.1089">В Магазин!</tspan></text>
    </g>
  </g>
</svg>
