<?xml version="1.0" encoding="UTF-8" standalone="no"?>
<!-- Created with Inkscape (http://www.inkscape.org/) -->

<svg
   width="138.98813mm"
   height="90.611984mm"
   viewBox="0 0 138.98813 90.611984"
   version="1.1"
   id="svg1"
   xmlns="http://www.w3.org/2000/svg"
   xmlns:svg="http://www.w3.org/2000/svg">
  <defs
     id="defs1" />
  <g
     id="layer1"
     transform="translate(-32.243689,-73.755502)">
    <g
       id="g105780"
       transform="translate(-104.24671,-1364.5608)">
      <g
         id="g34341-92-5-5-3"
         transform="matrix(9.9362586,0,0,9.9362586,88.040364,1383.4661)"
         style="opacity:1;fill:#1d79af;fill-opacity:1">
        <path
           id="path16198-8-5-2-8-3"
           style="fill:#1d79af;fill-opacity:1;stroke-width:0.783385;stroke-linecap:round;stroke-dashoffset:27.2126"
           d="m 11.818861,5.5202068 a 3.7586407,4.5596624 0 0 0 -3.3630973,2.530368 3.6970236,3.2965127 0 0 0 -3.5796794,3.2924552 3.6970236,3.2965127 0 0 0 3.6970794,3.296503 3.6970236,3.2965127 0 0 0 1.7332653,-0.387419 3.7586407,4.5596624 0 0 0 1.512432,0.387419 3.7586407,4.5596624 0 0 0 1.562024,-0.412316 3.6970236,3.2965127 0 0 0 1.786297,0.412316 3.6970236,3.2965127 0 0 0 3.696877,-3.296503 3.6970236,3.2965127 0 0 0 -3.681291,-3.2963012 3.7586407,4.5596624 0 0 0 -3.363907,-2.526522 z" />
        <path
           id="path16198-5-1-8-7-1-1"
           style="fill:#1d79af;fill-opacity:1;stroke:#ffffff;stroke-width:0.271411;stroke-linecap:round;stroke-dasharray:0.542825, 1.08565;stroke-dashoffset:0;stroke-opacity:1"
           d="m 11.828543,6.3822178 a 3.0480642,3.6976515 0 0 0 -2.7272983,2.051998 2.9980959,2.6733021 0 0 0 -2.9029374,2.6700122 2.9980959,2.6733021 0 0 0 2.9981414,2.673294 2.9980959,2.6733021 0 0 0 1.4055893,-0.314177 3.0480642,3.6976515 0 0 0 1.226505,0.314177 3.0480642,3.6976515 0 0 0 1.266721,-0.334367 2.9980959,2.6733021 0 0 0 1.448595,0.334367 2.9980959,2.6733021 0 0 0 2.997976,-2.673294 2.9980959,2.6733021 0 0 0 -2.985337,-2.6731302 3.0480642,3.6976515 0 0 0 -2.727955,-2.04888 z" />
      </g>
      <path
         style="font-weight:bold;font-size:10.8607px;line-height:1;font-family:'Hachi Maru Pop';-inkscape-font-specification:'Hachi Maru Pop Bold';letter-spacing:0px;word-spacing:0px;baseline-shift:baseline;fill:#f8f8f8;stroke-width:0.271515"
         d="m 160.95161,1494.8366 q -0.16291,0 -0.23893,-0.076 -0.0652,-0.065 -0.0869,-0.2389 -0.0434,-0.5105 -0.076,-1.173 -0.0326,-0.6625 -0.0652,-1.401 -0.0217,-0.7385 -0.0434,-1.4879 -0.0109,-0.7494 -0.0109,-1.4445 0,-0.6408 0.0109,-1.1838 0.0217,-0.5539 0.0543,-0.9449 0,-0.1412 0.10861,-0.2389 0.11947,-0.098 0.26066,-0.076 0.0869,0 0.16291,0.076 0.0869,0.065 0.0977,0.098 0.0435,-0.2389 0.31496,-0.2715 0.41271,-0.043 0.858,-0.065 0.45615,-0.022 0.92316,-0.022 0.86885,0 1.65082,0.1195 0.78197,0.1195 1.39017,0.4018 0.6082,0.2716 0.95575,0.7386 0.3584,0.467 0.3584,1.1729 0,0.8797 -0.62992,1.4771 -0.62992,0.5973 -1.60739,0.8906 0.97747,0.1629 1.44448,0.5539 0.47787,0.3909 0.47787,1.1077 0,0.6191 -0.38013,1.021 -0.38012,0.3909 -1.04262,0.6082 -0.66251,0.2172 -1.53136,0.3041 -0.858,0.087 -1.8246,0.087 -0.74939,0 -1.53136,-0.032 z m 0.34754,-0.6734 q 0.28238,0.011 0.56476,0.011 0.29324,0.011 0.57562,0.011 0.80369,0 1.54222,-0.065 0.73852,-0.054 1.325,-0.1954 0.58648,-0.1521 0.92316,-0.4019 0.34754,-0.2606 0.34754,-0.6625 0,-0.3584 -0.23893,-0.5865 -0.22808,-0.228 -0.6082,-0.3584 -0.38012,-0.1303 -0.83627,-0.1846 -0.45615,-0.054 -0.9123,-0.065 -0.44529,-0.022 -0.81456,-0.022 -0.14118,0.011 -0.23893,-0.076 -0.0977,-0.098 -0.11947,-0.2498 0,-0.1738 0.10861,-0.2607 0.10861,-0.087 0.21721,-0.098 0.66251,-0.054 1.32501,-0.2064 0.6625,-0.152 1.2164,-0.4018 0.55389,-0.2607 0.87971,-0.6408 0.33668,-0.3801 0.33668,-0.8906 0,-0.4887 -0.3041,-0.8145 -0.29323,-0.3367 -0.80369,-0.5431 -0.51045,-0.2063 -1.15123,-0.2932 -0.64078,-0.098 -1.31415,-0.098 -0.42356,0 -0.84713,0.032 -0.41271,0.022 -0.97746,0.054 -0.22808,0 -0.31496,-0.152 -0.0217,0.1738 -0.0326,0.543 -0.0109,0.3693 -0.0109,0.8689 0,0.5539 0.0109,1.2164 0.0109,0.6625 0.0217,1.3467 0.0217,0.6734 0.0434,1.3033 0.0217,0.619 0.0434,1.1186 0.0217,0.4888 0.0434,0.7603 z m 16.23675,0.5865 q -0.14119,0.011 -0.24979,-0.076 -0.10861,-0.087 -0.13033,-0.228 -0.0869,-0.706 -0.14119,-1.4879 -0.0543,-0.782 -0.0543,-1.5531 0,-0.8037 0.076,-1.5857 0.076,-0.782 0.27152,-1.4445 0.19549,-0.6733 0.55389,-1.1186 0.36927,-0.4453 0.95575,-0.5539 0.11946,-0.022 0.23893,-0.033 0.11947,-0.011 0.22808,-0.011 0.73852,0 1.24898,0.4453 0.51045,0.4453 0.78197,1.2382 0.28238,-0.7712 0.80369,-1.2273 0.52131,-0.467 1.22726,-0.467 0.68422,0 1.11865,0.3692 0.44529,0.3585 0.68422,0.9992 0.2498,0.6408 0.34755,1.488 0.0977,0.8362 0.0977,1.792 0,0.858 -0.0869,1.6834 -0.076,0.8254 -0.2498,1.4988 -0.0434,0.1954 -0.15205,0.228 -0.10861,0.033 -0.26066,0.033 -0.14118,-0.033 -0.21721,-0.152 -0.076,-0.1195 -0.0434,-0.2607 0.11947,-0.4236 0.18463,-0.9883 0.0652,-0.5756 0.0978,-1.1947 0.0326,-0.6299 0.0326,-1.2164 0,-0.7385 -0.076,-1.3793 -0.076,-0.6516 -0.26065,-1.1512 -0.17377,-0.4996 -0.46701,-0.782 -0.29324,-0.2824 -0.73853,-0.2824 -0.53218,0 -0.87972,0.3801 -0.34754,0.3802 -0.55389,0.9884 -0.1955,0.5973 -0.29324,1.2707 -0.0109,0.1303 -0.10861,0.2172 -0.0978,0.076 -0.23893,0.076 -0.16292,0 -0.23894,-0.098 -0.076,-0.1087 -0.0978,-0.2173 -0.0652,-0.7168 -0.24979,-1.3032 -0.17377,-0.5974 -0.52132,-0.9449 -0.33668,-0.3476 -0.90143,-0.3476 -0.15205,0 -0.31496,0.033 -0.38013,0.076 -0.64079,0.4344 -0.24979,0.3476 -0.40184,0.8906 -0.14119,0.5431 -0.20636,1.2056 -0.0652,0.6516 -0.0652,1.3358 0,0.7603 0.0543,1.5965 0.0652,0.8255 0.15205,1.5205 0.0217,0.1412 -0.076,0.239 -0.0869,0.1086 -0.23894,0.1412 z m 17.21421,0.391 q -0.21721,-0.054 -0.24979,-0.163 -0.0326,-0.098 -0.0326,-0.2715 -1.18382,0.4453 -2.29161,0.4453 -0.84714,0 -1.53136,-0.2824 -0.68423,-0.2823 -1.09693,-0.8688 -0.40185,-0.5974 -0.40185,-1.4988 0,-0.9123 0.58648,-1.4988 0.58648,-0.5973 1.5205,-0.8471 0.51045,-0.1195 1.0209,-0.1195 0.57562,0 1.14038,0.1304 0.57561,0.1303 1.07521,0.3692 -0.2498,-0.9449 -0.97747,-1.3358 -0.7168,-0.391 -1.73771,-0.391 -0.45615,0 -0.94488,0.065 -0.48873,0.054 -0.93402,0.1521 -0.13033,0.033 -0.26066,-0.043 -0.11946,-0.087 -0.15205,-0.228 -0.0109,-0.1521 0.0543,-0.2716 0.076,-0.1303 0.21721,-0.1411 1.14038,-0.2281 2.04181,-0.2281 1.68341,0 2.56313,0.858 0.87972,0.8471 0.99918,2.5305 0.0326,0.2715 0.0326,0.6517 0,0.4235 -0.0326,0.9231 -0.0326,0.4996 -0.0869,0.9666 -0.0543,0.467 -0.11947,0.8037 -0.0217,0.1846 -0.15205,0.2389 -0.11947,0.054 -0.2498,0.054 z m -3.26907,-0.7494 q 0.1955,0.043 0.39099,0.054 0.19549,0.022 0.39098,0.022 0.57562,0 1.15124,-0.1521 0.57561,-0.152 1.16209,-0.3909 0.0543,-0.5105 0.0869,-0.9449 0.0434,-0.4345 0.0434,-0.8363 0,-0.1846 -0.0109,-0.3584 -0.0109,-0.1846 -0.0326,-0.3584 0,0 -0.0109,0 0,0 0,-0.011 -0.54304,-0.3366 -1.1621,-0.5104 -0.6082,-0.1847 -1.20554,-0.1847 -0.18463,0 -0.36926,0.022 -0.18463,0.011 -0.36926,0.054 -0.74939,0.1737 -1.22726,0.6299 -0.47787,0.4561 -0.47787,1.1512 0,0.8254 0.46701,1.249 0.47787,0.4236 1.17295,0.5648 z m 9.19901,0.5647 q -0.14118,0 -0.24979,-0.087 -0.0977,-0.087 -0.11947,-0.228 -0.0326,-0.2607 -0.0543,-0.6843 -0.0217,-0.4344 -0.0326,-0.9557 -0.0109,-0.5213 -0.0109,-1.0535 0,-0.7711 0.0217,-1.4662 0.0326,-0.7059 0.076,-1.0643 0.0217,-0.1521 0.10861,-0.2172 0.0977,-0.065 0.19549,-0.076 0.32582,-0.054 0.78197,-0.065 0.46701,-0.022 0.99919,-0.022 0.72766,0 1.55308,0.033 0.83627,0.022 1.6834,0.054 0.15205,0.011 0.2498,0.1195 0.0977,0.1086 0.0652,0.2607 -0.0109,0.1411 -0.11946,0.2389 -0.10861,0.087 -0.26066,0.076 -0.36926,-0.022 -0.86886,-0.033 -0.49959,-0.022 -1.04262,-0.033 -0.54304,-0.011 -1.06435,-0.011 -0.49959,0 -0.92316,0.011 -0.42357,0.011 -0.70595,0.033 -0.0217,0.2281 -0.0434,0.7277 -0.0109,0.4996 -0.0109,1.1078 0,0.5756 0.0109,1.1729 0.0109,0.5865 0.0326,1.0644 0.0217,0.467 0.0434,0.7059 0.0326,0.1521 -0.076,0.2716 -0.0978,0.1194 -0.23894,0.1194 z m 15.79146,0.1847 q -0.21721,-0.054 -0.2498,-0.163 -0.0326,-0.098 -0.0326,-0.2715 -1.18381,0.4453 -2.2916,0.4453 -0.84714,0 -1.53136,-0.2824 -0.68423,-0.2823 -1.09693,-0.8688 -0.40185,-0.5974 -0.40185,-1.4988 0,-0.9123 0.58648,-1.4988 0.58648,-0.5973 1.5205,-0.8471 0.51045,-0.1195 1.0209,-0.1195 0.57562,0 1.14037,0.1304 0.57562,0.1303 1.07521,0.3692 -0.24979,-0.9449 -0.97746,-1.3358 -0.7168,-0.391 -1.73771,-0.391 -0.45615,0 -0.94488,0.065 -0.48873,0.054 -0.93402,0.1521 -0.13033,0.033 -0.26066,-0.043 -0.11947,-0.087 -0.15205,-0.228 -0.0109,-0.1521 0.0543,-0.2716 0.076,-0.1303 0.21721,-0.1411 1.14037,-0.2281 2.04181,-0.2281 1.68341,0 2.56313,0.858 0.87971,0.8471 0.99918,2.5305 0.0326,0.2715 0.0326,0.6517 0,0.4235 -0.0326,0.9231 -0.0326,0.4996 -0.0869,0.9666 -0.0543,0.467 -0.11946,0.8037 -0.0217,0.1846 -0.15205,0.2389 -0.11947,0.054 -0.2498,0.054 z m -3.26907,-0.7494 q 0.19549,0.043 0.39099,0.054 0.19549,0.022 0.39098,0.022 0.57562,0 1.15123,-0.1521 0.57562,-0.152 1.1621,-0.3909 0.0543,-0.5105 0.0869,-0.9449 0.0434,-0.4345 0.0434,-0.8363 0,-0.1846 -0.0109,-0.3584 -0.0109,-0.1846 -0.0326,-0.3584 0,0 -0.0109,0 0,0 0,-0.011 -0.54303,-0.3366 -1.16209,-0.5104 -0.6082,-0.1847 -1.20554,-0.1847 -0.18463,0 -0.36926,0.022 -0.18463,0.011 -0.36927,0.054 -0.74938,0.1737 -1.22725,0.6299 -0.47788,0.4561 -0.47788,1.1512 0,0.8254 0.46701,1.249 0.47788,0.4236 1.17296,0.5648 z m 11.69698,0.5213 q -0.59734,0 -1.19468,-0.1521 -0.58648,-0.1412 -1.22726,-0.4453 -0.10861,-0.054 -0.15205,-0.152 -0.0434,-0.087 -0.0434,-0.1738 0,-0.1412 0.0977,-0.2281 0.0978,-0.098 0.22808,-0.098 0.076,0 0.15205,0.033 1.19468,0.5213 2.13956,0.5213 0.39098,-0.011 0.73852,-0.1303 0.35841,-0.1304 0.57562,-0.3367 0.21722,-0.2172 0.21722,-0.4887 0,-0.3259 -0.21722,-0.5757 -0.20635,-0.2498 -0.54303,-0.4127 -0.32582,-0.1629 -0.68423,-0.2389 -0.26065,-0.065 -0.26065,-0.3475 0,-0.1847 0.11946,-0.2716 0.11947,-0.098 0.22808,-0.076 0.67336,0.022 1.08607,-0.3258 0.42357,-0.3476 0.42357,-0.8797 0,-0.467 -0.2498,-0.7929 -0.2498,-0.3366 -0.67336,-0.5104 -0.42357,-0.1738 -0.93402,-0.1738 -0.58648,0 -1.23812,0.2064 -0.64079,0.2063 -1.19468,0.467 -0.076,0.033 -0.16291,0.033 -0.14119,0 -0.23894,-0.1086 -0.0977,-0.1087 -0.0977,-0.239 0,-0.1955 0.19549,-0.3041 0.62992,-0.2932 1.37931,-0.5104 0.74939,-0.2172 1.37931,-0.2172 0.72766,0 1.29242,0.2715 0.57562,0.2606 0.90144,0.7385 0.32582,0.4779 0.32582,1.1404 0,0.5321 -0.28238,0.9883 -0.27152,0.4561 -0.73853,0.6734 0.44529,0.2498 0.66251,0.6299 0.21721,0.3692 0.21721,0.7928 0,0.4887 -0.31496,0.8689 -0.31496,0.3801 -0.82541,0.5973 -0.4996,0.2281 -1.08607,0.2281 z m 8.25412,0.022 q -0.20635,-0.033 -0.23893,-0.2715 -0.0434,-0.2824 -0.076,-0.7494 -0.0326,-0.467 -0.0543,-1.0426 -0.0109,-0.5757 -0.0217,-1.173 -0.0109,-0.6082 -0.0109,-1.1621 0,-0.5647 0,-0.9883 0.0217,-0.1846 0.13033,-0.2715 0.11946,-0.087 0.23893,-0.065 0.13033,0 0.21722,0.1086 0.0977,0.1086 0.0977,0.2607 -0.0109,0.2063 -0.0217,0.4235 0,0.2064 0,0.4345 0,0.7276 0.0434,1.5531 0.0435,0.8254 0.0869,1.7702 1.06435,-1.2272 2.11784,-2.3241 1.05348,-1.097 2.13955,-2.0527 0.11947,-0.098 0.23894,-0.098 0.11947,0 0.21721,0.087 0.10861,0.087 0.13033,0.2064 0.0543,0.4018 0.0869,0.8037 0.0434,0.4018 0.0543,0.934 0.0217,0.5322 0.0217,1.3033 0.0109,0.7711 0.0109,1.9115 0,0.1737 -0.11947,0.2498 -0.11946,0.087 -0.23893,0.087 -0.17377,0 -0.26066,-0.1194 -0.076,-0.1086 -0.076,-0.2281 0.0109,-0.1738 0.0109,-0.3801 0,-0.2064 0,-0.4453 0,-0.5213 -0.0109,-1.1078 -0.0109,-0.5973 -0.0326,-1.1621 -0.0217,-0.5648 -0.0543,-0.9775 -0.62992,0.5213 -1.14037,0.9884 -0.49959,0.467 -0.97746,0.9666 -0.46701,0.4995 -0.98833,1.0969 -0.51045,0.5865 -1.16209,1.3467 -0.10861,0.1086 -0.1955,0.1086 -0.0326,0 -0.076,-0.011 -0.0326,0 -0.0869,-0.011 z m 15.9761,-0.054 q -0.14119,-0.011 -0.2498,-0.1195 -0.10861,-0.098 -0.0977,-0.2498 0,-0.098 0,-0.4018 0.0109,-0.3041 0.0217,-0.6842 0.0109,-0.391 0.0109,-0.7494 0.0109,-0.3584 0.0109,-0.5539 h -4.65924 q 0,0.4235 0,0.7711 0.0109,0.3475 0.0217,0.7277 0.0109,0.3692 0.0217,0.8905 0.0217,0.1412 -0.0869,0.2498 -0.0977,0.1086 -0.24979,0.1086 -0.17377,0.022 -0.26066,-0.098 -0.076,-0.1086 -0.0978,-0.2281 -0.0109,-0.2172 -0.0217,-0.6951 0,-0.4778 -0.0109,-1.0969 0,-0.6299 0,-1.2598 0,-0.5539 0,-1.0535 0.0109,-0.5105 0.0109,-0.8906 0.0109,-0.3801 0.0217,-0.543 0.0326,-0.3259 0.32583,-0.3259 0.21721,0 0.29323,0.1195 0.0869,0.1086 0.0652,0.2498 0,0.098 -0.0109,0.4127 0,0.3041 -0.0109,0.6951 -0.0109,0.391 -0.0217,0.7385 0,0.3476 0,0.5322 h 4.6701 q 0,-0.1846 -0.0109,-0.543 0,-0.3584 -0.0109,-0.7386 -0.0109,-0.391 -0.0217,-0.6951 0,-0.3149 0,-0.4018 -0.0109,-0.1846 0.10861,-0.2715 0.11947,-0.098 0.2498,-0.098 0.13032,0 0.22807,0.087 0.0977,0.087 0.0977,0.239 0.0326,0.228 0.0434,0.6625 0.0217,0.4344 0.0217,0.9883 0.0109,0.543 0.0109,1.1186 0,0.5757 -0.0109,1.1295 0,0.5431 -0.0217,0.9775 -0.0109,0.4236 -0.0434,0.6625 0,0.1303 -0.0977,0.2281 -0.0978,0.1086 -0.23893,0.1086 z m 5.41949,-2.9976 q -0.11947,0 -0.22808,-0.087 -0.0977,-0.087 -0.0977,-0.239 v -5.1262 q 0,-0.1629 0.1086,-0.239 0.10861,-0.087 0.21722,-0.087 0.14119,0 0.22807,0.087 0.0978,0.087 0.0978,0.239 v 5.1262 q 0,0.1738 -0.10861,0.2498 -0.0977,0.076 -0.21721,0.076 z m 0,3.3126 q -0.59734,0 -0.98833,-0.3693 -0.39098,-0.3693 -0.39098,-0.9666 0,-0.6082 0.39098,-0.9775 0.39099,-0.3692 0.98833,-0.3692 0.59734,0 0.98832,0.3801 0.40185,0.3693 0.40185,0.9666 0,0.5647 -0.39099,0.9449 -0.39098,0.391 -0.99918,0.391 z m 0,-0.6191 q 0.36926,0 0.56475,-0.2064 0.20636,-0.2063 0.20636,-0.5104 0,-0.3367 -0.20636,-0.5322 -0.20635,-0.1955 -0.56475,-0.1955 -0.38013,0 -0.57562,0.2064 -0.18463,0.1955 -0.18463,0.5213 0,0.3258 0.19549,0.5213 0.19549,0.1955 0.56476,0.1955 z"
         id="text23762-5-1-0-4"
         aria-label="В Магазин!" />
    </g>
  </g>
</svg>
