<?xml version="1.0" encoding="UTF-8" standalone="no"?>
<!-- Created with Inkscape (http://www.inkscape.org/) -->

<svg
   width="156.19211mm"
   height="52.665779mm"
   viewBox="0 0 156.1921 52.665779"
   version="1.1"
   id="svg1048"
   inkscape:version="1.2.2 (732a01da63, 2022-12-09)"
   sodipodi:docname="MainLogo.svg"
   xmlns:inkscape="http://www.inkscape.org/namespaces/inkscape"
   xmlns:sodipodi="http://sodipodi.sourceforge.net/DTD/sodipodi-0.dtd"
   xmlns="http://www.w3.org/2000/svg"
   xmlns:svg="http://www.w3.org/2000/svg">
  <sodipodi:namedview
     id="namedview1050"
     pagecolor="#ffffff"
     bordercolor="#666666"
     borderopacity="1.0"
     inkscape:showpageshadow="2"
     inkscape:pageopacity="0.0"
     inkscape:pagecheckerboard="0"
     inkscape:deskcolor="#d1d1d1"
     inkscape:document-units="mm"
     showgrid="false"
     inkscape:zoom="0.84096521"
     inkscape:cx="401.32457"
     inkscape:cy="-11.891098"
     inkscape:window-width="1440"
     inkscape:window-height="837"
     inkscape:window-x="-8"
     inkscape:window-y="-8"
     inkscape:window-maximized="1"
     inkscape:current-layer="g2135" />
  <defs
     id="defs1045">
    <rect
       x="122.62695"
       y="282.8595"
       width="174.38148"
       height="55.468811"
       id="rect402-2-8" />
    <rect
       x="122.62695"
       y="282.8595"
       width="174.38148"
       height="55.468811"
       id="rect402-2-8-17" />
    <filter
       style="color-interpolation-filters:sRGB;"
       inkscape:label="Drop Shadow"
       id="filter9397"
       x="-0.0063089018"
       y="-0.018390656"
       width="1.016298"
       height="1.0367813">
      <feFlood
         flood-opacity="0.498039"
         flood-color="rgb(0,0,0)"
         result="flood"
         id="feFlood9387" />
      <feComposite
         in="flood"
         in2="SourceGraphic"
         operator="in"
         result="composite1"
         id="feComposite9389" />
      <feGaussianBlur
         in="composite1"
         stdDeviation="0.5"
         result="blur"
         id="feGaussianBlur9391" />
      <feOffset
         dx="0.7"
         dy="0"
         result="offset"
         id="feOffset9393" />
      <feComposite
         in="SourceGraphic"
         in2="offset"
         operator="over"
         result="composite2"
         id="feComposite9395" />
    </filter>
  </defs>
  <g
     inkscape:label="Слой 1"
     inkscape:groupmode="layer"
     id="layer1"
     transform="translate(-3.920478,-99.51457)">
    <g
       id="g2135"
       transform="matrix(0.80713189,0,0,0.80713189,0.7561352,29.350737)">
      <g
         id="g9037"
         style="filter:url(#filter9397)">
        <path
           id="path16198-8"
           style="fill:#1d79af;fill-opacity:1;stroke-width:5.60527;stroke-linecap:round;stroke-dashoffset:27.2126"
           d="m 53.597372,86.929824 a 26.893792,32.625256 0 0 0 -24.063604,18.105266 26.45291,23.587178 0 0 0 -25.61329,23.55815 26.45291,23.587178 0 0 0 26.45331,23.58711 26.45291,23.587178 0 0 0 12.401844,-2.77206 26.893792,32.625256 0 0 0 10.82174,2.77206 26.893792,32.625256 0 0 0 11.17658,-2.9502 26.45291,23.587178 0 0 0 12.781297,2.9502 A 26.45291,23.587178 0 0 0 104.00711,128.59324 26.45291,23.587178 0 0 0 77.666769,105.00757 26.893792,32.625256 0 0 0 53.597372,86.929824 Z" />
        <path
           id="path16198-5-1"
           style="fill:#1d79af;fill-opacity:1;stroke:#ffffff;stroke-width:1.942;stroke-linecap:round;stroke-dasharray:3.88402, 7.76803;stroke-dashoffset:0;stroke-opacity:1"
           d="m 53.666649,93.097677 a 21.809482,26.457403 0 0 0 -19.514341,14.682433 21.451949,19.127987 0 0 0 -20.771072,19.10445 21.451949,19.127987 0 0 0 21.452275,19.12793 21.451949,19.127987 0 0 0 10.05726,-2.24799 21.809482,26.457403 0 0 0 8.775878,2.24799 21.809482,26.457403 0 0 0 9.06363,-2.39246 21.451949,19.127987 0 0 0 10.364974,2.39246 A 21.451949,19.127987 0 0 0 94.546345,126.88456 21.451949,19.127987 0 0 0 73.185688,107.7578 21.809482,26.457403 0 0 0 53.666649,93.097677 Z" />
        <text
           xml:space="preserve"
           transform="matrix(1.0414122,0,0,1.0414122,-95.052996,-183.94699)"
           id="text400-6-8-9"
           style="font-style:normal;font-variant:normal;font-weight:bold;font-stretch:normal;font-size:23.03px;line-height:1;font-family:'last ninja';-inkscape-font-specification:'last ninja Bold';font-variant-ligatures:normal;font-variant-position:normal;font-variant-caps:normal;font-variant-numeric:normal;font-variant-alternates:normal;font-feature-settings:normal;text-indent:0;text-align:start;text-decoration:none;text-decoration-line:none;text-decoration-style:solid;text-decoration-color:#000000;letter-spacing:1.80994px;word-spacing:0px;text-transform:none;writing-mode:lr-tb;direction:ltr;text-orientation:mixed;dominant-baseline:auto;baseline-shift:baseline;white-space:pre;shape-inside:url(#rect402-2-8-17);shape-padding:0;display:inline;vector-effect:none;fill:#f8f8f8;fill-opacity:1;stroke:none;stroke-width:0.575751;stroke-linecap:butt;stroke-linejoin:miter;stroke-miterlimit:4;stroke-dasharray:none;stroke-dashoffset:0;stroke-opacity:1"><tspan
             x="122.62695"
             y="303.83252"
             id="tspan9423"><tspan
               style="font-family:'Permanent Marker';-inkscape-font-specification:'Permanent Marker Bold'"
               id="tspan9421"> PET</tspan></tspan></text>
        <text
           xml:space="preserve"
           transform="matrix(1.5181042,0,0,1.5181042,-84.866101,-327.03258)"
           id="text400-6-8"
           style="font-style:normal;font-variant:normal;font-weight:bold;font-stretch:normal;font-size:23.03px;line-height:1;font-family:'last ninja';-inkscape-font-specification:'last ninja Bold';font-variant-ligatures:normal;font-variant-position:normal;font-variant-caps:normal;font-variant-numeric:normal;font-variant-alternates:normal;font-feature-settings:normal;text-indent:0;text-align:start;text-decoration:none;text-decoration-line:none;text-decoration-style:solid;text-decoration-color:#000000;letter-spacing:0px;word-spacing:0px;text-transform:none;writing-mode:lr-tb;direction:ltr;text-orientation:mixed;dominant-baseline:auto;baseline-shift:baseline;white-space:pre;shape-inside:url(#rect402-2-8);shape-padding:0;display:inline;vector-effect:none;fill:#303c43;fill-opacity:1;stroke:none;stroke-width:0.575751;stroke-linecap:butt;stroke-linejoin:miter;stroke-miterlimit:4;stroke-dasharray:none;stroke-dashoffset:0;stroke-opacity:1"><tspan
             x="122.62695"
             y="303.83252"
             id="tspan9427"><tspan
               style="font-family:'Permanent Marker';-inkscape-font-specification:'Permanent Marker Bold'"
               id="tspan9425">cover</tspan></tspan></text>
      </g>
    </g>
  </g>
</svg>
