<?xml version="1.0" encoding="utf-8"?>
<!-- Generator: Adobe Illustrator 27.2.0, SVG Export Plug-In . SVG Version: 6.00 Build 0)  -->
<svg version="1.1" id="svg1048" xmlns:svg="http://www.w3.org/2000/svg"
	 xmlns="http://www.w3.org/2000/svg" xmlns:xlink="http://www.w3.org/1999/xlink" x="0px" y="0px" viewBox="0 0 442.7 149.3"
	 style="enable-background:new 0 0 442.7 149.3;" xml:space="preserve">
<style type="text/css">
	.st0{fill:#1D79AF;}
	
		.st1{fill:#1D79AF;stroke:#FFFFFF;stroke-width:4.4432;stroke-linecap:round;stroke-miterlimit:9.1517;stroke-dasharray:8.8864,17.7727;}
	.st2{fill:#F8F8F8;}
	.st3{fill:#303C43;}
</style>
<g id="layer1" transform="translate(-3.920478,-99.51457)">
	<g id="g2135" transform="matrix(0.80713189,0,0,0.80713189,0.7561352,29.350737)">
		<g id="g9037">
			<path id="path16198-8" class="st0" d="M144.7,86.9c-28.9,0-55.3,19.9-68.2,51.3C36.1,139.4,3.9,168.9,3.9,205
				c0,36.9,33.6,66.9,75,66.9c0,0,0,0,0,0c12.3,0,24.3-2.7,35.2-7.9c9.7,5.2,20.1,7.8,30.7,7.9c10.9,0,21.7-2.9,31.7-8.4
				c11.1,5.5,23.6,8.4,36.2,8.4c41.4,0,75-29.9,75-66.9c0-36.8-33.4-66.7-74.7-66.9C200.1,106.8,173.6,86.9,144.7,86.9z"/>
			<path id="path16198-5-1" class="st1" d="M144.9,104.4c-23.5,0-44.9,16.1-55.3,41.6c-32.8,0.9-58.9,24.9-58.9,54.2
				c0,29.9,27.2,54.2,60.8,54.2c0,0,0,0,0,0c9.9,0,19.7-2.2,28.5-6.4c7.8,4.2,16.3,6.4,24.9,6.4c8.9,0,17.6-2.3,25.7-6.8
				c9,4.4,19.1,6.8,29.4,6.8c33.6,0,60.8-24.3,60.8-54.2c0-29.9-27.1-54.1-60.5-54.2C189.8,120.5,168.4,104.4,144.9,104.4z"/>
			<g id="g1">
				<path id="text400-6-8-9" class="st2" d="M118.9,197.3c0-0.2,0.1-0.2,0.3-0.2c0.2,0,0.3,0,0.5-0.1c-0.4-0.4-0.6-0.8-0.7-1.4
					c-0.1-0.6-0.3-1.1-0.7-1.5c0.1-0.2,0.2-0.4,0.2-0.7c0.1-0.2,0.3-0.3,0.6-0.3c-0.1-1-0.1-1.9,0.1-2.7c0.2-0.8,0.4-1.6,0.8-2.4
					c0.4-0.8,0.8-1.5,1.3-2.2c0.5-0.8,1-1.5,1.5-2.3c0.4-0.1,0.6,0,0.7,0.1c0.1,0.1,0.2,0.1,0.5-0.1c0.7-0.5,1.2-1,1.5-1.6
					c0.3-0.6,0.4-1.3,0.4-2c0.4-1.2,0.8-2.3,1.3-3.4c0.5-1.2,1.1-2.2,1.8-3.2c0.7-1,1.4-1.8,2.1-2.5c0.8-0.8,1.6-1.3,2.5-1.7
					c0.6-0.5,1.4-1,2.3-1.5c1-0.4,2-0.8,3.1-1c1.1-0.3,2.2-0.4,3.4-0.4c1.2,0,2.2,0.1,3.2,0.3c0.2,0.1,0.4,0,0.4-0.1
					c0-0.2,0.2-0.3,0.3-0.3c2.2,0.3,4.2,0.7,5.9,1.3c1.8,0.6,3.3,1.5,4.5,2.6c0.8,1.3,1.6,2.8,2.4,4.3c0.8,1.5,1.3,3.1,1.7,4.8
					c0.4,1.6,0.6,3.3,0.6,5.1c0,1.8-0.4,3.5-1.1,5.3c-1.5,1.9-3.4,3.5-5.6,4.7c-2.2,1.2-4.6,2.1-7.2,2.9c-2.5,0.8-5.2,1.4-7.9,1.9
					c-2.7,0.5-5.3,1-7.9,1.6c0,1.2,0,2.5,0,3.9c0,1.3-0.2,2.7-0.5,4c-0.2,1.3-0.6,2.6-1.1,3.9c-0.4,1.3-1.1,2.5-1.9,3.6
					c-0.9,0-1.8,0-2.8,0.3c-0.9,0.2-1.8,0.4-2.5,0.7c-0.4-0.2-0.7-0.4-1.1-0.7c-0.3-0.2-0.7-0.3-1.2-0.3c0.1-0.5,0-1.1-0.4-1.7
					c-0.4-0.6-0.7-1.1-1.1-1.7c-0.4-0.6-0.6-1.1-0.7-1.7c-0.1-0.6,0.2-1.1,0.8-1.5c-0.4-0.3-0.5-0.8-0.5-1.5
					c0.2,0.2,0.4,0.3,0.7,0.3c-0.1-0.8,0-1.7,0.3-2.9c0.3-1.1,0.6-2.2,0.7-3.3c0.2-1.1,0.3-2.1,0.1-3
					C120.3,198.4,119.8,197.7,118.9,197.3L118.9,197.3z M136.1,181.8c-0.2,0.5-0.3,0.9-0.5,1.3c-0.1,0.4-0.2,0.7-0.3,1
					c-0.1,0.3-0.3,0.6-0.5,0.9c-0.1,0.3-0.3,0.7-0.5,1.1c0.1,0.3,0.3,0.5,0.5,0.6c0.3,0.1,0.4,0.3,0.5,0.6c0.6-0.3,1.2-0.5,1.9-0.7
					c0.6-0.2,1.2-0.3,1.9-0.4c0.6-0.1,1.2-0.2,1.9-0.3c0.6-0.1,1.3-0.4,1.9-0.7c0.7-0.3,1.3-0.6,2.1-0.7c0.8-0.2,1.5-0.4,2.2-0.7
					c0.7-0.2,1.4-0.5,2.1-0.7c0.7-0.3,1.2-0.7,1.7-1.2c-0.6-0.6-1.5-1.1-2.8-1.5c-1.2-0.4-2.6-0.7-4-0.8c-1.4-0.1-2.9,0-4.3,0.3
					C138.4,180.1,137.2,180.8,136.1,181.8L136.1,181.8z M168.4,213.8c-0.4-0.4-0.6-0.8-0.8-1.3c-0.1-0.5-0.5-0.9-1.1-1.2
					c-0.1-0.7-0.2-1.4-0.4-2.3c-0.1-0.9-0.3-1.8-0.5-2.7c-0.1-0.9-0.2-1.8-0.3-2.7c0-0.9,0-1.8,0.1-2.5c0.1-0.4,0.2-0.8,0.4-1.1
					c0.2-0.4,0.4-0.7,0.6-1c0.2-0.4,0.4-0.7,0.5-1.1c0.1-0.4,0.2-0.7,0.1-1.1c0.3,0,0.4-0.2,0.5-0.4c0.1-0.3,0.3-0.4,0.7-0.3
					c0.3-1,0.6-1.9,1-2.7c0.4-0.8,0.7-1.7,1.1-2.5c0.4-0.8,0.8-1.6,1.2-2.4c0.4-0.8,0.8-1.8,1.2-2.8c-0.8-0.7-1.3-1.5-1.7-2.3
					c-0.3-0.8-0.6-1.7-0.7-2.5c-0.2-0.8-0.3-1.7-0.4-2.5c-0.1-0.9-0.3-1.8-0.5-2.7c0.5-0.8,1.2-1.4,1.9-1.9c0.8-0.5,1.6-1,2.5-1.3
					c0.9-0.4,1.9-0.6,3-0.8c1.1-0.2,2.2-0.5,3.4-0.7c2.1-0.7,4-1.2,5.7-1.5c1.7-0.4,3.3-0.7,4.9-0.9c1.6-0.3,3.3-0.5,5-0.7
					c1.7-0.2,3.7-0.5,6-0.9c0,0.1,0.1,0.2,0.2,0.2c0.1,0,0.3,0,0.5,0c0.1,0.3,0.4,0.5,0.7,0.5c0-0.1,0-0.2-0.1-0.3
					c0-0.1,0-0.2,0-0.3c0.1,0,0.2,0,0.3,0.1c0.2,0,0.3,0.1,0.4,0.1c0.1,0,0.2,0,0.3,0c0.1-0.1,0.1-0.2,0.1-0.5
					c0.5,0.9,1.2,1.7,2.1,2.3c0.8,0.6,1.8,1.1,2.8,1.5c0,0.4,0,0.7,0,0.9c0,0.2,0,0.4-0.1,0.5c0,0.1-0.1,0.3-0.1,0.5
					c0,0.2,0,0.4,0.1,0.8c-0.7,1.2-1.5,2.1-2.5,2.8c-0.9,0.7-1.8,1.2-2.9,1.5c-1,0.4-2.1,0.6-3.3,0.8c-1.1,0.2-2.3,0.4-3.5,0.6
					c-1.2,0.2-2.3,0.4-3.5,0.8c-1.2,0.4-2.4,0.9-3.5,1.6c-0.4-0.1-0.7-0.2-1-0.1c-0.3,0-0.6,0-0.9,0.1c-0.3,0.1-0.7,0.2-1.1,0.3
					c-0.4,0.1-0.8,0.1-1.3,0c-0.4,0.3-0.8,0.5-1.3,0.7c-0.4,0.1-0.9,0.3-1.4,0.4c0.2,0.5,0.3,1,0.3,1.5c0,0.5,0.1,0.9,0.2,1.3
					c1.9,0.2,3.9,0.2,6.2,0c2.3-0.2,4.5-0.4,6.6-0.5c0,0.2,0,0.4-0.1,0.5c-0.1,0.1-0.1,0.2-0.1,0.5c0.4,0.3,0.8,0.6,1.1,1
					c0.4,0.4,0.7,0.8,1.1,1.2c0.4,0.4,0.8,0.7,1.2,0.9c0.4,0.2,0.9,0.3,1.4,0.3c0.2,0.4,0.4,0.9,0.5,1.4c0.1,0.5,0,1-0.2,1.5
					c-0.9,0.6-1.7,1.2-2.6,1.8c-0.8,0.6-1.7,1.1-2.7,1.6c-0.9,0.5-1.9,0.9-2.9,1.2c-1.1,0.3-2.2,0.4-3.5,0.4c-0.2,0-0.4,0-0.6,0
					c-0.1,0-0.3-0.1-0.5-0.3c-0.4,0.2-1,0.3-1.8,0.3c-0.7-0.1-1.3,0-1.8,0.2c-0.6-0.2-1.3-0.3-2.2-0.3c-0.8,0-1.5-0.1-2.1-0.3
					c-0.8,1.2-1.5,2.4-2.3,3.7c-0.7,1.2-1.3,2.6-1.9,4c1.8,0.3,3.3,0.4,4.5,0.3c1.2,0,2.3-0.1,3.4-0.3c1.1-0.1,2.1-0.3,3.3-0.4
					c1.2-0.1,2.5-0.2,4.2-0.1c1.1-0.5,2.4-0.9,3.8-1.1c1.5-0.2,2.8-0.5,4-0.9c0.4,0.1,0.8,0.4,1.1,0.8c0.3,0.4,0.6,0.7,0.9,1.1
					c0.3,0.4,0.6,0.7,0.9,0.9c0.3,0.3,0.7,0.4,1.2,0.3c0.2,0.2,0.4,0.5,0.4,0.8c0.1,0.3,0.2,0.6,0.2,0.9c0.1,0.3,0.2,0.5,0.3,0.7
					c0.1,0.1,0.4,0.2,0.7,0.1c-0.8,1.7-1.8,3.1-2.9,4c-1,0.9-2.2,1.7-3.5,2.2c-1.3,0.5-2.7,0.9-4.4,1.1c-1.6,0.2-3.4,0.5-5.4,0.9
					c-0.5,0.1-0.9,0.1-1.3,0c-0.3-0.1-0.6-0.2-1-0.2c-1.2,0.2-2.7,0.4-4.4,0.7c-1.7,0.2-3.4,0.3-5.1,0.3c-1.7,0-3.4-0.3-5-0.7
					C170.8,215.5,169.5,214.8,168.4,213.8L168.4,213.8z M214.1,178.6c0-0.4-0.1-0.7-0.3-0.9c-0.1-0.3-0.2-0.6-0.3-1
					c-0.2-0.5-0.4-1.1-0.6-1.7c-0.2-0.6-0.3-1.3-0.3-2.2c0.1-0.4,0.2-0.8,0.3-0.9c0.1-0.2,0.3-0.4,0.4-0.5l0.3-1.2h1
					c0.4,0,0.7,0.1,1.1,0.1c0.4,0,0.8,0,1.1,0c1.7,0,3.4-0.1,5.2-0.2c1.8-0.1,3.6-0.3,5.4-0.5c2-0.3,4.2-0.5,6.6-0.6
					c0.2-0.5,0.4-0.8,0.4-0.9c0.1-0.1,0.2-0.3,0.3-0.5l0.7-0.4c1,0,1.7,0.1,2.1,0.4c0.4,0.3,0.7,0.5,0.9,0.8
					c1.2-0.1,2.3-0.2,3.5-0.3c1.2-0.2,2.4-0.4,3.7-0.5c1.8-0.2,3.6-0.4,5.4-0.7c1.8-0.2,3.6-0.3,5.3-0.3c0.8,0,1.5,0,2.1,0.1
					c0.7,0,1.3,0.1,1.9,0.2l0.8,0.6c0.2,0.3,0.4,0.6,0.7,0.9c0.3,0.3,0.6,0.5,0.9,0.8c0.7,0.5,1.3,1.2,1.9,2c0.7,0.8,0.9,2,0.7,3.5
					l-0.3,0.7c-0.2,0.2-0.4,0.4-0.7,0.5l-0.7,0.9h-0.7c-0.4,0-0.8,0-1,0.1c-0.2,0-0.5,0.1-0.8,0.3c-0.2,0.1-0.4,0.2-0.6,0.3
					c-0.2,0-0.5,0.1-0.7,0.2c-0.5,0-0.9-0.1-1.1-0.1c-0.3,0-0.6,0-0.9,0c-1.3,0-2.8,0.1-4.3,0.3c-1.5,0.2-3.1,0.4-4.5,0.6
					c-1.1,0.1-2.1,0.3-3.1,0.4c-1,0.1-1.9,0.2-2.7,0.3c-0.4,1.2-0.8,2.2-1.2,3.1c-0.4,0.9-0.7,1.8-1.1,2.7c-0.4,0.9-0.8,1.8-1.1,2.7
					c-0.4,0.9-0.7,1.9-1,3c-0.5,0.8-1,1.6-1.3,2.3c-0.4,0.7-0.6,1.5-0.9,2.5c-0.7,0.8-1.2,1.6-1.5,2.5c-0.3,0.9-0.5,1.6-0.7,2.3
					l-0.3,1c-0.3,0.3-0.5,0.6-0.6,0.7c0,0.2-0.2,0.4-0.3,0.6c-0.1,0.6-0.3,1.1-0.5,1.7c-0.1,0.2-0.2,0.5-0.3,0.7
					c-0.1,0.2-0.1,0.4-0.1,0.5c-0.1,0.5-0.2,0.9-0.4,1.1c0,0.3,0,0.5-0.1,0.8c0,0.3-0.1,0.5-0.1,0.8c-0.1,0.3-0.2,0.6-0.2,0.9
					c0,0.2,0,0.4,0.1,0.7c0.1,0.2,0.3,0.4,0.4,0.5c0.1,0.2,0.2,0.4,0.3,0.7c0.1,0.1,0.2,0.2,0.3,0.2c0.1,0,0.2,0.1,0.3,0.2
					c0.4,0.3,0.7,0.5,1,0.5l0.7,0.8c0.3,1.6,0,2.8-0.7,3.7c-0.8,1-2.1,1.5-4,1.5l-0.9-0.1c-0.3-0.3-0.5-0.5-0.5-0.6
					c-0.4-0.2-0.7-0.3-1-0.5c-0.3-0.1-0.5-0.3-0.7-0.6c-0.1-0.1-0.2-0.1-0.3-0.1c-0.1,0-0.2-0.1-0.3-0.2c-0.4-0.1-0.8-0.3-1.1-0.5
					l-0.7-0.4c0-0.4,0.1-0.8,0.1-0.9c-0.4-0.5-0.6-1-0.9-1.6c-0.2-0.6-0.3-1.2-0.5-1.8c-0.1-0.5-0.3-0.9-0.4-1.3
					c-0.1-0.4-0.2-0.8-0.5-1.1c-0.1-3.1,0.2-5.7,0.9-7.8c0.7-2.1,1.4-4.2,2.2-6.2c0.4-1.1,0.9-2.1,1.3-3.3c0.4-1.1,0.8-2.2,1.1-3.4
					l0.7-0.7c0.3-0.3,0.5-0.4,0.6-0.5c0-0.6,0.1-1.1,0.3-1.7c0.2-0.6,0.5-1.2,0.7-1.7c0.2-0.4,0.3-0.7,0.5-1.1
					c0.2-0.4,0.3-0.7,0.3-0.9c-0.3,0-0.6,0-0.9,0.1c-0.2,0-0.5,0-0.7,0.1c-0.6,0.1-1.1,0.2-1.7,0.2c-0.4,0-0.7,0-0.9-0.1
					c-0.4,0.2-0.7,0.3-1,0.3c-0.3,0-0.6,0-0.9,0h-0.8h-0.8c-0.5,0-1,0.1-1.3,0.2c-0.6,0-1,0-1.2,0c-0.2,0-0.4,0-0.6,0h-0.8h-0.8
					c-0.4,0-0.8,0-1.2-0.1c-0.4-0.1-0.9-0.3-1.4-0.5l-0.5-0.5c-0.3-0.5-0.5-0.8-0.7-0.8l-0.7-0.2L214.1,178.6z"/>
				<path id="text400-6-8" class="st3" d="M320.2,221.2c-1,0.1-2.3,0-3.9-0.1c-1.5-0.1-2.9,0.1-4.2,0.7c-3.4-0.1-6.9-0.5-10.5-1.3
					c-3.5-0.7-6.8-1.6-9.8-2.6c-0.6-0.7-1.3-1.4-1.9-1.9c-0.6-0.6-1.5-1.1-2.6-1.4c-1.5-1.2-2.8-2.7-3.8-4.5c-1-1.8-1.7-3.7-2.3-5.7
					c-0.6-2-1-4-1.2-6.1c-0.2-2.1-0.3-4.2-0.2-6.1c1-2.9,2.3-5.4,4.1-7.5c1.8-2.1,3.6-4.2,5.5-6.3c0.8-0.4,1.5-0.8,1.8-1.2
					c0.5-0.5,0.9-0.8,1.4-1.2c0.5-0.4,1-0.7,1.5-1.1c0.5-0.4,1-0.8,1.4-1.4c1.4-0.3,2.5-0.8,3.5-1.4c1-0.6,2-1.3,3-1.9
					c1-0.7,2-1.4,3-1.9s2.2-1,3.6-1.4c0.5-0.6,1.1-1,1.8-1.4c0.7-0.4,1.4-0.7,2.1-1.1c0.8-0.4,1.5-0.8,2.1-1.2
					c0.7-0.4,1.3-0.9,1.6-1.5c0.3,0.5,0.8,0.7,1.4,0.6c0.6-0.2,1.1-0.4,1.6-0.6c0.3-0.1,0.6,0,0.8,0.2c0.3,0.2,0.5,0.4,0.7,0.6
					c0.2,0.2,0.4,0.3,0.5,0.4c0.2,0,0.4-0.2,0.5-0.5c0.3,0,0.4,0.2,0.3,0.5c-0.1,0.3-0.2,0.5-0.3,0.7c0.5-0.1,0.9,0.1,1.3,0.4
					c0.4,0.3,1,0.4,1.7,0.5c0.3,0.3,0.3,0.6,0.2,0.8c-0.1,0.1-0.2,0.4-0.2,0.8c1.9,0.6,3.2,1.5,3.7,2.8c0.5,1.2,0.5,2.5,0.1,3.9
					c-0.5,1.4-1.3,2.6-2.4,3.8c-1.2,1.2-2.4,1.9-3.8,2.3c-3.1,0.8-6,1.8-8.8,2.8c-2.7,1-4.9,2.4-6.7,4.4c-1.5,0.5-2.9,1.1-4.2,1.8
					c-1.2,0.7-2.3,1.5-3.4,2.5c-1,0.9-2,1.9-3,2.9c-0.9,1-1.9,1.9-2.9,2.9c0.1,0.9-0.1,1.6-0.5,2.1c-0.3,0.5-0.6,0.9-1,1.5
					c0.1,1,0.4,1.8,0.7,2.6c0.3,0.7,0.7,1.4,1.1,2.1c4.3,1.3,8.8,2.1,13.5,2.4c4.8,0.3,9.7,0.5,14.5,0.6c0.5,0.6,1,1.3,1.5,1.8
					c0.6,0.5,1.2,1.1,1.7,1.7c0.5,0.6,0.9,1.3,1.3,2c0.3,0.7,0.4,1.6,0.2,2.7c-0.9,1-1.9,1.9-3,2.7
					C322.4,219.5,321.3,220.3,320.2,221.2L320.2,221.2z M387.3,191.9c-0.1,0.8,0,1.5,0.2,2.2s0.4,1.4,0.7,2.1c0.3,0.6,0.6,1.3,0.9,2
					c0.3,0.7,0.5,1.4,0.6,2.1c0.1,0.9,0.1,1.9,0,3c-0.1,1-0.4,2.1-0.7,3.1c-0.3,1-0.7,1.9-1.3,2.7c-0.5,0.8-1.1,1.4-1.8,1.7
					c-0.9,1.2-2,2.1-3.3,2.7s-2.5,1.4-3.6,2.3c-0.7,0.5-1.5,0.8-2.4,1c-0.8,0.2-1.7,0.4-2.6,0.6c-0.7,0.4-1.5,0.8-2.5,1.3
					c-1,0.4-2,0.8-3,1.2c-1,0.3-2.1,0.6-3.1,0.8c-1,0.1-1.9,0.2-2.7,0.1c-1.9,0.7-3.8,1.2-5.7,1.4c-1.8,0.3-3.9,0.1-6.4-0.4
					c-2.3,0.3-4.5,0.2-6.5-0.3c-1.9-0.5-3.7-1.3-5.2-2.4c-1.5-1.2-2.8-2.5-4-4.1c-1.1-1.6-2-3.3-2.7-5c-0.5-3.7-0.4-7,0.4-10
					c0.8-3,1.9-5.8,3.3-8.3c1.5-2.6,3.2-4.9,5-7.1c1.9-2.2,3.7-4.3,5.4-6.4c0.4,0.1,0.7,0.1,0.9,0c0.3-0.2,0.5-0.4,0.7-0.7
					c0.2-0.3,0.4-0.6,0.6-0.9c0.3-0.3,0.5-0.4,0.9-0.5c0.5-1,1.1-1.7,1.9-2.1c0.9-0.5,1.6-1.2,2.1-2.1c0.6-0.1,1.1-0.3,1.5-0.6
					c0.4-0.3,0.7-0.5,1.1-0.9c0.4-0.3,0.8-0.6,1.2-0.9c0.4-0.3,0.8-0.5,1.4-0.7v-1.1c1.2-0.5,2-1.1,2.5-1.7c0.6-0.7,1.3-1.5,2-2.5
					c0.6-0.1,1-0.1,1.4-0.1c0.4,0,0.9-0.1,1.6-0.2c0.5-0.9,1-1.6,1.4-2c0.5-0.5,1.1-0.9,1.9-1.5c0.8,0.4,1.6,0.6,2.5,0.8
					c1,0.1,1.8,0.5,2.5,1.3c0.1,0.6,0.3,1.2,0.6,1.5c0.3,0.3,0.7,0.6,1.1,1c0.4,0.3,0.7,0.5,1.1,0.9c0.4,0.3,0.6,0.8,0.8,1.4
					c0.3,0.1,0.4,0,0.5-0.1c0.1-0.1,0.3-0.2,0.6-0.1c0.2,0.9,0.4,1.5,0.7,1.8c0.3,0.3,0.5,0.8,0.8,1.6c-0.3,0.6-0.6,1.3-0.8,2
					c-0.1,0.6-0.5,1.1-1.2,1.5c-0.1,0.5,0.1,0.7,0.4,0.8c0.3,0,0.5,0.2,0.6,0.5c0.1,0.6,0,1-0.3,1.3c1.5,2.5,2.9,5.2,4.2,8
					C384.3,186.8,385.7,189.4,387.3,191.9L387.3,191.9z M375.2,201.1c0.3-0.7,0.6-1.3,1-1.7c0.5-0.5,0.7-1.1,0.8-2
					c-0.3-0.5-0.5-0.9-0.6-1.2c-0.1-0.3-0.1-0.8-0.1-1.5c-1.4-2-2.6-4.1-3.7-6.4c-1-2.3-2.2-4.5-3.5-6.5c-0.1,0.3-0.4,0.5-0.7,0.8
					c-0.3,0.3-0.7,0.2-1.1-0.2c-0.1,0.5-0.4,0.9-0.7,1.2c-0.3,0.2-0.7,0.3-1.1,0.3c-0.4-0.1-0.8-0.2-1.3-0.3
					c-0.4-0.2-0.7-0.4-1.1-0.7c-1.9,1.5-3.7,2.9-5.6,4.4c-1.9,1.4-3.5,3.1-5,4.9c-0.3,0.1-0.4,0.2-0.5,0.2c-0.1-0.1-0.3,0-0.6,0.1
					c-0.5,1.2-1.2,2.4-1.9,3.4c-0.7,1-1.4,2-2.1,3c-0.7,1-1.3,2.1-1.8,3.3c-0.5,1.2-0.8,2.5-0.9,4.1c1.1,0.9,2.4,1.5,3.9,1.6
					c1.5,0.2,3,0.2,4.5,0.1c1.6-0.1,3.2-0.3,4.6-0.6c1.5-0.3,3-0.5,4.3-0.5c2.7-0.6,5-1.5,7-2.5C371,203.3,373,202.2,375.2,201.1
					L375.2,201.1z M422.4,203.9c-0.1,0.9-0.3,1.8-0.7,2.6c-0.3,0.8-0.7,1.5-1.3,2.3c-0.5,0.7-1.1,1.4-1.7,2.1
					c-0.6,0.6-1.2,1.2-1.7,1.7c0.2,0.8,0.2,1.5,0,1.9c-0.1,0.4-0.2,1-0.1,1.8c-1,2.6-2.5,4.3-4.5,5.1c-1.9,0.9-3.8,0.7-5.5-0.5
					c-0.7-0.5-1.3-1.2-1.8-1.9c-0.5-0.8-1.1-1.4-1.9-1.5c0.2-1.1,0.1-2.2-0.3-3.3c-0.4-1.1-0.8-1.7-1.3-1.7
					c-0.2-1.4-0.5-2.8-0.9-4.4c-0.4-1.5-0.7-3.1-1.1-4.6c-0.3-1.6-0.6-3.2-0.9-4.6c-0.2-1.5-0.3-3-0.2-4.3c0.1-0.6-0.1-1.2-0.4-1.7
					c-0.3-0.5-0.5-1.1-0.6-1.8c-0.3-1.5-0.4-3-0.3-4.6c0.1-1.7,0.2-3.3,0.2-4.7c0-1.4-0.1-2.9-0.3-4.5c-0.1-1.7-0.3-3.3-0.4-4.7
					c-0.1-1.5-0.2-2.9-0.2-4.2c0-1.3,0.2-2.3,0.5-3c0.4-0.8,0.9-1.4,1.5-1.8c0.7-0.5,1.4-1.1,1.9-1.6c1.4,0.1,2.5,0.7,3.4,1.7
					c0.8,1,1.2,2,1,2.9c1.4,0.8,2.4,1.9,3.2,3.3c0.8,1.3,1.5,2.8,1.9,4.5c0.5,1.6,0.9,3.4,1.1,5.2c0.2,1.8,0.4,3.6,0.5,5.4
					c0.1,1.7,0.3,3.4,0.4,5c0.1,1.6,0.4,3,0.8,4.2c2.4-3.4,4.4-6.5,6-9.1c1.6-2.7,3.3-5.3,4.9-7.7c1.7-2.5,3.5-4.9,5.6-7.5
					c2.1-2.5,4.7-5.4,8-8.5c0.6,0.1,1.2,0.2,1.5,0.4c0.5,0.2,0.8,0.4,1.2,0.5c0.3,0.1,0.7,0.3,1.2,0.4c0.5,0.1,1.1,0,1.8-0.1
					c0.3,0.6,0.5,1.1,0.6,1.5c0.1,0.3,0.2,0.5,0.3,0.9c0.1,0.3,0.3,0.6,0.4,1.1c0.2,0.5,0.5,1.1,0.9,1.9c0.2,0.2,0.3,0.5,0.2,0.8
					c-0.1,0.3-0.1,0.6-0.2,1c0,0.3,0,0.5,0,0.6c0,0.1,0.2,0.1,0.5,0c-0.2,0.9-0.5,1.7-1.1,2.5c-0.5,0.7-0.6,1.6-0.6,2.6
					c-1.5,1.9-3.1,3.9-4.9,6c-1.7,2.1-3.5,4.2-5.3,6.4c-1.7,2.2-3.4,4.5-5,7c-1.6,2.4-3,4.9-4.2,7.5c-0.3,0-0.6,0.1-0.8,0.3
					c-0.1,0.2-0.3,0.4-0.4,0.7c-0.1,0.2-0.3,0.4-0.5,0.6C422.9,203.8,422.7,203.9,422.4,203.9L422.4,203.9z M492.3,166.5
					c0.1,0.5,0.1,0.8,0,1.1c0,0.2,0,0.4-0.1,0.6c0,0.2,0,0.4,0,0.7c0,0.2,0.1,0.5,0.2,1c-1.4,2.2-2.9,3.7-4.7,4.5
					c-1.7,0.8-3.6,1.4-5.7,1.7c-2.1,0.3-4.2,0.7-6.4,1.1c-2.1,0.4-4.3,1.2-6.4,2.5c-0.8-0.3-1.6-0.3-2.3,0c-0.6,0.3-1.6,0.4-2.9,0.3
					c-0.4,0.4-0.9,0.7-1.5,0.9c-0.6,0.1-1.2,0.3-1.7,0.5c0.3,0.6,0.4,1.2,0.3,1.8c0,0.6,0.1,1.1,0.3,1.5c2.3,0.2,4.7,0.2,7.5-0.1
					c2.8-0.3,5.5-0.4,8.1-0.5c0.1,0.3,0,0.5-0.1,0.7c-0.1,0.1-0.2,0.2-0.1,0.5c0.5,0.3,0.9,0.7,1.4,1.3c0.5,0.5,0.9,0.9,1.4,1.4
					c0.5,0.5,0.9,0.8,1.4,1.2c0.5,0.3,1.1,0.4,1.7,0.3c0.3,0.5,0.4,1.1,0.5,1.7c0.1,0.6,0.1,1.2-0.2,1.8c-1,0.7-2.1,1.5-3.1,2.2
					c-1,0.7-2.1,1.4-3.3,1.9c-1.1,0.6-2.3,1.1-3.6,1.5c-1.2,0.3-2.6,0.5-4.2,0.4c-0.3,0-0.6,0-0.8,0c-0.1,0-0.3-0.1-0.6-0.3
					c-0.5,0.3-1.3,0.4-2.2,0.3c-0.9-0.1-1.6,0-2.1,0.3c-0.7-0.3-1.6-0.5-2.6-0.4c-1,0-1.8-0.1-2.6-0.4c-1,1.4-2,2.8-2.8,4.4
					c-0.8,1.5-1.6,3.2-2.2,4.9c2.2,0.3,4,0.5,5.4,0.4c1.5-0.1,2.9-0.2,4.2-0.3c1.3-0.2,2.6-0.4,4-0.5c1.4-0.2,3.1-0.3,5.1-0.2
					c1.3-0.7,2.8-1.2,4.5-1.4c1.8-0.3,3.5-0.6,4.9-1.2c0.5,0.2,1,0.5,1.4,1.1c0.4,0.5,0.7,0.9,1.1,1.4c0.4,0.4,0.8,0.7,1.2,1.1
					c0.4,0.3,0.9,0.5,1.5,0.4c0.3,0.3,0.4,0.6,0.5,1c0.1,0.3,0.2,0.6,0.3,1c0.1,0.3,0.2,0.6,0.3,0.9c0.2,0.2,0.5,0.3,0.9,0.2
					c-1,2.1-2.1,3.8-3.4,4.9c-1.2,1.1-2.6,1.9-4.3,2.5c-1.6,0.6-3.4,1-5.4,1.4c-1.9,0.3-4.1,0.7-6.5,1.2c-0.6,0.1-1.1,0.1-1.5-0.1
					c-0.4-0.1-0.8-0.2-1.4-0.2c-1.5,0.3-3.3,0.6-5.3,0.9c-2.1,0.3-4.2,0.4-6.3,0.3c-2.1-0.1-4.2-0.4-6.1-0.9
					c-1.9-0.5-3.5-1.3-4.7-2.5c-0.5-0.5-0.9-1-1.1-1.5c-0.1-0.6-0.5-1.1-1.3-1.5c-0.1-0.8-0.2-1.8-0.4-2.8c-0.2-1-0.4-2.1-0.6-3.2
					c-0.2-1.2-0.4-2.3-0.5-3.4c-0.1-1.1,0-2.1,0.2-3c0.2-1,0.6-1.8,1.2-2.6c0.6-0.8,0.9-1.6,0.7-2.5c0.3-0.1,0.5-0.2,0.6-0.5
					c0.1-0.3,0.3-0.5,0.8-0.4c0.4-1.2,0.8-2.3,1.3-3.3c0.5-1,0.9-2,1.4-3c0.5-1,1-1.9,1.5-2.9c0.5-1,1-2.2,1.5-3.4
					c-0.9-0.8-1.6-1.7-2-2.7c-0.4-1-0.7-2-0.9-3c-0.2-1-0.4-2.1-0.5-3.1c-0.1-1.1-0.4-2.2-0.7-3.3c0.6-1,1.4-1.7,2.3-2.3
					c1-0.6,2-1.2,3.1-1.5c1.1-0.4,2.3-0.7,3.6-1c1.3-0.3,2.6-0.5,4.1-0.9c2.6-0.8,4.9-1.5,6.9-1.9c2.1-0.5,4.1-0.8,6-1.1
					c2-0.3,4.1-0.6,6.2-0.9c2.1-0.3,4.5-0.6,7.3-1.2c0.6,0.6,1.1,0.9,1.6,0.9c0.3-0.6,0.5-0.7,0.9-0.5c0.4,0.2,0.5,0,0.5-0.6
					c0.6,1.1,1.5,2,2.4,2.8C489.9,165.4,491.1,166,492.3,166.5L492.3,166.5z M504.6,210.9c-0.7,2.6-1.4,4.5-1.9,5.9
					c-0.5,1.3-1.3,2.6-2.4,4.1c-0.8-0.1-1.4,0-1.7,0.3c-0.3,0.3-0.7,0.6-1.1,0.9c-0.6,0.1-1,0.1-1.3,0c-0.3-0.1-0.5-0.3-0.7-0.5
					c-0.2-0.1-0.5-0.3-0.8-0.5c-0.3-0.1-0.7-0.2-1.3-0.2c-0.1-0.5-0.3-1-0.5-1.5c-0.1-0.5-0.5-0.6-1.3-0.5c0.1-0.5,0.2-0.9,0.1-1.3
					c-0.1-0.4-0.2-0.7-0.3-1c-0.1-0.3-0.1-0.6-0.2-0.9c-0.1-0.3,0-0.7,0.1-1.2c-0.3,0-0.6-0.2-0.8-0.7c-0.2-0.5-0.4-0.9-0.7-1.4
					c0.2-1.2,0.4-2.3,0.6-3.3c0.2-1,0.4-2,0.7-2.9c0.3-0.9,0.6-1.8,0.8-2.7c0.2-0.9,0.1-1.8-0.3-2.8c0.3,0.2,0.5,0.2,0.6-0.1
					c0.1-0.3,0.2-0.7,0.3-1.2c0.1-0.5,0.1-1,0.1-1.5c0-0.5,0-0.9-0.1-1.3c0.6-1.7,1.2-3.4,1.5-5.1c0.5-1.8,0.8-3.6,1.2-5.3
					c0.4-1.7,0.8-3.5,1.2-5.1c0.4-1.7,0.9-3.2,1.5-4.6c0.7-0.1,1.5,0,2.3,0.3c0.9,0.3,1.5,0.6,1.6,1.1c1.7-1.3,3.2-2.8,4.5-4.6
					c1.3-1.9,2.6-3.7,4-5.4c1.4-1.7,2.8-3.3,4.5-4.6c1.7-1.4,3.8-2.2,6.3-2.4c1.3,1,2.7,2,4.3,3c1.6,1,2.9,2.3,4,3.9
					c0.5,0.3,0.9,0.5,1.3,0.9c0.4,0.3,0.8,0.5,1.4,0.9v1.2c0.8,0.7,1.4,1.5,1.8,2.5c0.5,0.9,1,1.9,1.4,3c0.4,1,0.8,2.1,1.2,3.2
					c0.4,1,0.8,2,1.4,3c-0.1,0.3-0.2,0.6-0.2,0.9c0,0.2,0,0.4,0.1,0.7c0.1,0.3,0.2,0.5,0.3,0.8c0.1,0.3,0.1,0.6,0,1.1
					c-0.2,2.8-1.1,5.1-2.8,6.9c-1.6,1.7-3.6,3.2-5.9,4.4c-2.3,1.1-4.8,2-7.5,2.8c-2.6,0.8-5,1.6-7.2,2.5c0,0.3,0.1,0.4,0.3,0.4
					c0.3,0,0.4,0.2,0.3,0.5c1.5,1,2.8,1.7,3.7,2.3c0.9,0.6,1.7,1.1,2.5,1.5c0.8,0.4,1.7,0.7,2.6,1.1c1,0.3,2.3,0.6,4,1
					c1.7,0.4,3,0.7,3.9,1c1,0.2,1.8,0.4,2.6,0.6c0.8,0.1,1.5,0.3,2.3,0.4c0.8,0.1,2,0.2,3.5,0.3c0.6,0.6,1.1,1.3,1.5,2.1
					c0.5,0.8,0.7,1.6,0.9,2.4c0.1,0.8,0.2,1.5,0.1,2.3c-0.1,0.7-0.3,1.3-0.7,1.7c0.1,0.2,0.2,0.3,0.4,0.3c0.3-0.1,0.5-0.1,0.8,0
					c-0.4,0.3-0.7,0.6-1,1c-0.3,0.4-0.5,0.8-0.8,1.2c-0.3,0.4-0.5,0.7-0.9,1c-0.3,0.3-0.8,0.5-1.4,0.6c-2,0.8-4.5,0.8-7.5,0.1
					c-3-0.6-6.9-1.9-11.5-3.7c-2.3-0.9-4.2-1.7-5.7-2.3c-1.4-0.7-2.7-1.4-3.8-2c-1-0.7-2-1.5-2.9-2.2
					C506.8,212.9,505.8,212,504.6,210.9L504.6,210.9z M518.4,177.7c-0.7,1-1.5,2-2.4,2.8c-0.8,0.8-1.7,1.7-2.5,2.6
					c-0.8,0.8-1.5,1.8-2.1,2.9c-0.6,1-1.1,2.3-1.4,3.7c2.3-0.3,4.6-0.9,7.1-1.8c2.5-1,4.8-2,7-2.9c-0.3-2-1-3.6-2.1-4.8
					C520.8,178.9,519.6,178.1,518.4,177.7L518.4,177.7z"/>
			</g>
		</g>
	</g>
</g>
</svg>
